<svg width="109" height="103" viewBox="0 0 109 103" fill="none" xmlns="http://www.w3.org/2000/svg">
<path d="M103.296 95.9785C103.296 99.8562 80.1727 103 51.648 103C23.1233 103 0 99.8562 0 95.9785C0 93.2333 11.5908 90.855 28.483 89.7013C35.4488 89.2242 43.3193 88.9569 51.648 88.9569C55.0717 88.9569 58.4172 89.0022 61.6527 89.0883C85.3891 89.7225 103.296 92.5658 103.296 95.9785Z" fill="#3F3D56"/>
<path opacity="0.1" d="M44.9838 97.413C55.9334 97.413 64.8099 96.4327 64.8099 95.2235C64.8099 94.0142 55.9334 93.0339 44.9838 93.0339C34.0341 93.0339 25.1576 94.0142 25.1576 95.2235C25.1576 96.4327 34.0341 97.413 44.9838 97.413Z" fill="black"/>
<path d="M44.9005 96.809C55.2521 96.809 63.6437 88.6963 63.6437 78.6888C63.6437 68.6813 55.2521 60.5687 44.9005 60.5687C34.5489 60.5687 26.1572 68.6813 26.1572 78.6888C26.1572 88.6963 34.5489 96.809 44.9005 96.809Z" fill="#3F3D56"/>
<path d="M50.8149 89.4099H39.1525V99.074H50.8149V89.4099Z" fill="#10A37F"/>
<path d="M66.0595 91.7505L65.3931 95.0725L69.7248 95.6765L72.5571 94.1665L72.3905 91.7505H66.0595Z" fill="#575A89"/>
<path d="M44.234 29.3869C44.234 29.3869 43.9008 32.8599 43.0677 33.0109C42.2347 33.1619 44.9004 39.202 44.9004 39.202H48.899L52.0645 38.447L50.565 35.125C50.565 35.125 48.5658 32.7089 50.0652 30.7459C51.5647 28.7829 44.234 29.3869 44.234 29.3869Z" fill="#A0616A"/>
<path opacity="0.1" d="M44.234 29.3869C44.234 29.3869 43.9008 32.8599 43.0677 33.0109C42.2347 33.1619 44.9004 39.202 44.9004 39.202H48.899L52.0645 38.447L50.565 35.125C50.565 35.125 48.5658 32.7089 50.0652 30.7459C51.5647 28.7829 44.234 29.3869 44.234 29.3869Z" fill="black"/>
<path d="M35.9037 55.9631C35.9037 55.9631 31.5719 63.5132 35.0706 65.0232C38.5694 66.5332 39.4024 66.3822 39.4024 66.8352C39.4024 67.2882 38.736 67.1372 39.0692 67.8922C39.4024 68.6472 38.4028 71.6673 39.4024 73.4793C40.4021 75.2913 40.0688 76.6503 40.0688 76.6503C40.0688 76.6503 40.0688 76.8013 40.4021 77.4053C40.7353 78.0093 40.9019 78.4623 40.7353 78.7643C40.5687 79.0663 39.569 81.0293 40.5687 81.4823C41.5683 81.9353 46.7331 82.2373 47.2329 81.4823C47.7327 80.7273 46.7331 80.2743 47.2329 79.8213C47.7327 79.3683 48.0659 79.2173 47.7327 78.9153C47.3995 78.6133 47.0663 74.8383 47.0663 74.8383C47.0663 74.8383 47.8993 70.4593 47.5661 69.8552C47.2329 69.2512 46.7331 68.6472 47.0663 68.1942C47.3995 67.7412 47.7327 67.8922 47.8993 67.2882C48.0659 66.6842 48.3992 65.3252 48.3992 65.3252L50.2318 65.1742L54.5636 65.9292C54.5636 65.9292 59.3952 70.7613 64.7266 72.2713C64.7266 72.2713 66.226 73.6303 66.7259 73.6303C67.2257 73.6303 67.2257 73.6303 67.0591 73.9323C66.8925 74.2343 66.3926 74.2343 66.7259 74.5363C67.0591 74.8383 67.5589 74.3853 67.2257 74.8383C66.8925 75.2913 66.5592 75.2913 66.8925 75.5933C67.2257 75.8953 66.7259 77.5563 66.7259 77.7073C66.7259 77.8583 65.2264 92.0524 65.7262 92.3544C66.226 92.6564 73.2235 93.5624 73.7233 92.3544C74.2231 91.1464 73.3901 89.6364 73.3901 89.6364C73.3901 89.6364 75.8892 71.5163 75.2228 70.3082C74.5564 69.1002 72.2239 63.6642 59.7284 60.1912C59.7284 60.1912 56.2297 59.5872 56.2297 59.1342C56.2297 58.6812 55.8964 55.8121 55.23 55.6611C54.5636 55.5101 50.7316 55.3591 50.7316 55.3591L45.9001 56.7181L39.2358 55.6611L35.9037 55.9631Z" fill="#2F2E41"/>
<path d="M41.7349 81.3313L40.9019 84.0493C40.9019 84.0493 40.2355 88.4284 41.0685 89.4854C41.7228 90.3156 42.8911 91.3322 45.0578 91.5107C45.665 91.5611 46.2731 91.4223 46.7814 91.117C47.2897 90.8117 47.6678 90.3584 47.8532 89.8319C47.8781 89.7688 47.8936 89.7031 47.8994 89.6364C47.8994 89.3344 47.3996 85.7103 47.3996 85.7103L46.5665 81.9353L46.3999 80.8783L41.7349 81.3313Z" fill="#2F2E41"/>
<path d="M66.0594 94.3174C66.0594 94.3174 65.2264 93.5624 65.0598 94.3174C64.8932 95.0724 64.2267 98.2434 65.393 98.3944C66.5592 98.5454 77.7219 100.055 78.8881 99.4515C80.0543 98.8474 82.2202 97.9414 80.8874 97.4884C79.5545 97.0354 75.7226 95.6764 75.7226 95.6764C75.7226 95.6764 73.5567 93.1094 73.2235 92.9584C72.8903 92.8074 71.0576 93.1094 70.2246 93.7134C69.3915 94.3174 66.0594 94.3174 66.0594 94.3174Z" fill="#2F2E41"/>
<path d="M48.2325 32.5579C51.085 32.5579 53.3973 30.4622 53.3973 27.8769C53.3973 25.2916 51.085 23.1959 48.2325 23.1959C45.3801 23.1959 43.0677 25.2916 43.0677 27.8769C43.0677 30.4622 45.3801 32.5579 48.2325 32.5579Z" fill="#A0616A"/>
<path d="M47.7327 38.447L45.7334 36.484L43.5173 32.5579C43.5173 32.5579 41.9015 32.1049 41.5682 32.8599C41.235 33.6149 35.2372 36.031 35.2372 36.031C35.2372 36.031 36.7367 48.7151 36.0702 49.9231C35.4038 51.1311 34.2376 55.9631 35.2372 56.4161C36.2368 56.8691 40.9018 56.4161 42.4013 57.0201C43.9007 57.6241 48.2325 57.6241 49.3987 56.8691C50.565 56.1141 50.8982 55.5101 52.0645 55.9631C53.0573 56.3488 55.3784 43.1641 56.0466 39.2351C56.1029 38.9051 56.0562 38.5674 55.9117 38.2602C55.7671 37.9531 55.5306 37.6887 55.2289 37.4971C53.734 36.5467 51.0416 34.909 50.565 35.125C49.8986 35.427 47.7327 38.447 47.7327 38.447Z" fill="#575A89"/>
<path d="M54.8969 37.843C55.2881 37.9316 55.64 38.1266 55.9054 38.4018C56.1708 38.677 56.3369 39.0193 56.3814 39.3825L57.7292 50.3761C57.7292 50.3761 54.397 56.8691 52.731 52.4901C51.0649 48.111 54.8969 37.843 54.8969 37.843Z" fill="#575A89"/>
<path d="M54.5636 51.433L58.229 50.527C58.229 50.527 58.8954 54.7551 59.5618 54.7551C60.2283 54.7551 57.2293 57.1711 55.7299 56.8691C54.2304 56.5671 52.0645 55.5101 51.8979 54.7551C51.7313 54.0001 53.3974 50.829 53.3974 50.829L54.5636 51.433Z" fill="#575A89"/>
<path d="M44.3336 29.8962C44.6848 29.1943 44.6239 28.3757 44.9142 27.6513C45.0697 27.2635 45.322 26.9134 45.6514 26.6286C45.9808 26.3437 46.3785 26.1318 46.8132 26.0093C47.248 25.8867 47.7081 25.857 48.1577 25.9223C48.6073 25.9876 49.0341 26.1463 49.4048 26.3858C49.7783 26.6272 50.1527 26.9663 50.6086 26.9202C51.0995 26.8706 51.5374 26.3742 51.9888 26.5561C52.4891 26.7578 52.354 27.5704 52.8608 27.7581C53.1276 27.8569 53.4429 27.7047 53.5967 27.4839C53.7313 27.2518 53.8046 26.9946 53.811 26.7325C53.8809 26.0884 53.9441 25.4068 53.6359 24.8231C53.5063 24.6252 53.3933 24.4188 53.298 24.2055C53.2441 24.0063 53.2224 23.8011 53.2338 23.5963C53.2309 22.8393 53.17 22.0497 52.7497 21.3956C52.2832 20.6697 51.421 20.2055 50.5216 20.003C49.6221 19.8005 48.6797 19.8315 47.7562 19.9024C46.2296 20.0195 44.6375 20.2706 43.4347 21.1308C43.2712 21.239 43.1305 21.373 43.0193 21.5263C42.9137 21.7085 42.8391 21.904 42.798 22.1064C42.538 23.0662 42.1481 23.9932 41.6372 24.8663C41.3914 25.2364 41.1906 25.6296 41.0381 26.0389C40.9106 26.4548 40.9192 26.9288 41.1862 27.2863C41.4036 27.5773 41.7511 27.7324 42.0241 27.9704C42.2947 28.2061 42.4213 28.6596 42.721 28.8381C42.9826 28.994 43.296 28.884 43.5628 29.0492C43.9054 29.2612 43.9301 29.7263 44.3336 29.8962Z" fill="#2F2E41"/>
<path d="M48.5658 40.712L49.0656 39.806C49.0656 39.806 56.3963 41.769 57.8958 43.581C57.8958 43.581 61.5611 41.467 63.5604 41.769L65.5597 42.071L59.3952 47.054L51.5647 46.45L48.5658 40.712Z" fill="#F2F2F2"/>
<path d="M48.2326 39.806L41.4017 48.413L51.2315 52.7921C51.2315 52.7921 52.1505 53.2451 52.8572 52.7921L59.3952 50.074L65.5597 42.071L59.3952 44.94C59.3952 44.94 58.7288 43.732 57.3959 44.336L48.2326 39.806Z" fill="#10A37F"/>
<path d="M58.7288 55.0571L60.0616 51.8861C60.0616 51.8861 63.0606 48.413 61.3945 46.752C59.7284 45.091 57.8958 51.5841 57.8958 51.5841L58.7288 55.0571Z" fill="#A0616A"/>
<path d="M43.3506 54.5511L46.2589 52.4141C46.2589 52.4141 50.7756 50.7735 50.2539 48.5791C49.7322 46.3847 44.5525 51.168 44.5525 51.168L43.3506 54.5511Z" fill="#A0616A"/>
<path opacity="0.1" d="M36.1536 39.2775H35.987C35.987 39.2775 33.4046 36.484 32.9048 40.259C32.405 44.034 30.7389 56.5671 35.0707 57.0201C39.4024 57.4731 42.4846 55.1326 42.4846 55.1326C42.4846 55.1326 45.6502 50.7536 44.4839 50.7536C43.9196 50.7536 42.385 50.5239 40.9852 50.6026C39.4919 50.6865 38.1502 51.0678 38.2362 50.6781C38.4028 49.9231 40.8186 40.3345 36.1536 39.2775Z" fill="black"/>
<path d="M35.9037 36.3329L35.2373 36.0309C35.2373 36.0309 32.5716 36.4839 32.0718 40.259C31.572 44.034 29.9059 56.5671 34.2377 57.0201C38.5694 57.4731 44.4007 56.4161 44.4007 56.4161C44.4007 56.4161 45.5669 50.6781 44.4007 50.6781C43.2344 50.6781 37.2366 51.4331 37.4032 50.6781C37.5698 49.9231 40.5687 37.39 35.9037 36.3329Z" fill="#575A89"/>
<path d="M56.313 53.3207L58.1502 50.7686L59.3119 54.9817L56.313 56.1897V53.3207Z" fill="#575A89"/>
<path d="M18.5721 16.9293C21.0565 16.9293 23.0705 15.1039 23.0705 12.8522C23.0705 10.6006 21.0565 8.77521 18.5721 8.77521C16.0877 8.77521 14.0737 10.6006 14.0737 12.8522C14.0737 15.1039 16.0877 16.9293 18.5721 16.9293Z" fill="#F2F2F2"/>
<path d="M23.9035 43.2035H13.2407V52.8676H23.9035V43.2035Z" fill="#F2F2F2"/>
<path d="M61.9776 0L64.6765 4.23664L67.3752 8.47329H61.9776H56.5801L59.2788 4.23664L61.9776 0Z" fill="#F2F2F2"/>
<path d="M109 25.4028C108.935 27.2103 108.45 28.6591 107.543 29.7492C106.636 30.8393 105.559 31.3845 104.311 31.3846C103.294 31.3846 102.403 30.8511 101.638 29.7842C100.872 28.7172 100.489 27.0761 100.49 24.8606C100.49 24.3709 100.502 23.9045 100.528 23.4614C100.554 23.0184 100.586 22.5986 100.625 22.2021L101.3 16.4477H96.8423C96.0704 23.7237 95.4368 28.0526 94.9414 29.4344C94.446 30.8161 93.6066 31.507 92.4231 31.507C91.8888 31.4951 91.3791 31.3015 90.995 30.9648C90.7723 30.7859 90.5962 30.5645 90.4794 30.3165C90.3626 30.0685 90.308 29.8 90.3195 29.5305C90.3195 28.9944 90.7859 28.2452 91.7186 27.283C92.6513 26.3211 93.1692 25.4436 93.2721 24.6507L94.43 16.4477H92.5582C92.0305 16.4506 91.5111 16.5675 91.0433 16.7888C90.6127 16.968 90.238 17.2415 89.9529 17.5846L89.1231 18.704H88.4476C89.0779 16.9317 89.853 15.5995 90.7731 14.7074C91.6927 13.8154 92.7509 13.3694 93.9476 13.3694H108.691V16.4477H103.712C103.558 17.847 103.439 19.2462 103.355 20.6454C103.272 22.0446 103.23 23.4497 103.23 24.8606C103.23 25.8168 103.474 26.5923 103.963 27.1869C104.452 27.7815 105.063 28.0789 105.797 28.0788C106.247 28.0788 106.72 27.9127 107.215 27.5803C107.45 27.4308 107.647 27.2369 107.792 27.012C107.937 26.7871 108.026 26.5365 108.054 26.2773C108.093 26.021 108.122 25.8198 108.141 25.6739C108.161 25.5283 108.17 25.4379 108.17 25.4028L109 25.4028Z" fill="#10A37F"/>
<path opacity="0.1" d="M109 25.4028C108.935 27.2103 108.45 28.6591 107.543 29.7492C106.636 30.8393 105.559 31.3845 104.311 31.3846C103.294 31.3846 102.403 30.8511 101.638 29.7842C100.872 28.7172 100.489 27.0761 100.49 24.8606C100.49 24.3709 100.502 23.9045 100.528 23.4614C100.554 23.0184 100.586 22.5986 100.625 22.2021L101.3 16.4477H96.8423C96.0704 23.7237 95.4368 28.0526 94.9414 29.4344C94.446 30.8161 93.6066 31.507 92.4231 31.507C91.8888 31.4951 91.3791 31.3015 90.995 30.9648C90.7723 30.7859 90.5962 30.5645 90.4794 30.3165C90.3626 30.0685 90.308 29.8 90.3195 29.5305C90.3195 28.9944 90.7859 28.2452 91.7186 27.283C92.6513 26.3211 93.1692 25.4436 93.2721 24.6507L94.43 16.4477H92.5582C92.0305 16.4506 91.5111 16.5675 91.0433 16.7888C90.6127 16.968 90.238 17.2415 89.9529 17.5846L89.1231 18.704H88.4476C89.0779 16.9317 89.853 15.5995 90.7731 14.7074C91.6927 13.8154 92.7509 13.3694 93.9476 13.3694H108.691V16.4477H103.712C103.558 17.847 103.439 19.2462 103.355 20.6454C103.272 22.0446 103.23 23.4497 103.23 24.8606C103.23 25.8168 103.474 26.5923 103.963 27.1869C104.452 27.7815 105.063 28.0789 105.797 28.0788C106.247 28.0788 106.72 27.9127 107.215 27.5803C107.45 27.4308 107.647 27.2369 107.792 27.012C107.937 26.7871 108.026 26.5365 108.054 26.2773C108.093 26.021 108.122 25.8198 108.141 25.6739C108.161 25.5283 108.17 25.4379 108.17 25.4028L109 25.4028Z" fill="black"/>
<path d="M109 24.8563C108.935 26.6638 108.45 28.1126 107.543 29.2027C106.636 30.2928 105.559 30.838 104.311 30.8381C103.294 30.8381 102.403 30.3046 101.638 29.2377C100.872 28.1707 100.489 26.5296 100.49 24.3141C100.49 23.8244 100.502 23.358 100.528 22.9149C100.554 22.4719 100.586 22.0521 100.625 21.6556L101.3 15.9012H96.8423C96.0704 23.1772 95.4368 27.5061 94.9414 28.8879C94.446 30.2696 93.6066 30.9605 92.4231 30.9605C91.8888 30.9486 91.3791 30.7551 90.995 30.4183C90.7723 30.2395 90.5962 30.018 90.4794 29.77C90.3626 29.522 90.308 29.2535 90.3195 28.984C90.3195 28.4479 90.7859 27.6987 91.7186 26.7365C92.6513 25.7746 93.1692 24.8971 93.2721 24.1042L94.43 15.9012H92.5582C92.0305 15.9041 91.5111 16.021 91.0433 16.2423C90.6127 16.4215 90.238 16.695 89.9529 17.0381L89.1231 18.1575H88.4476C89.0779 16.3852 89.853 15.053 90.7731 14.1609C91.6927 13.2689 92.7509 12.8229 93.9476 12.8229H108.691V15.9012H103.712C103.558 17.3004 103.439 18.6997 103.355 20.0989C103.272 21.4981 103.23 22.9032 103.23 24.3141C103.23 25.2704 103.474 26.0458 103.963 26.6404C104.452 27.235 105.063 27.5324 105.797 27.5324C106.247 27.5324 106.72 27.3662 107.215 27.0339C107.45 26.8843 107.647 26.6904 107.792 26.4655C107.937 26.2406 108.026 25.99 108.054 25.7308C108.093 25.4745 108.122 25.2733 108.141 25.1274C108.161 24.9818 108.17 24.8914 108.17 24.8563H109Z" fill="#10A37F"/>
</svg>
