<svg width="138" height="103" viewBox="0 0 138 103" fill="none" xmlns="http://www.w3.org/2000/svg">
<path d="M137.938 99.5486H96.2667V99.2098H138L137.938 99.5486Z" fill="#3F3D56"/>
<path d="M6.68671 2.39059C7.35006 2.39059 7.88782 1.85547 7.88782 1.19536C7.88782 0.535248 7.35006 0.00012207 6.68671 0.00012207C6.02335 0.00012207 5.4856 0.535248 5.4856 1.19536C5.4856 1.85547 6.02335 2.39059 6.68671 2.39059Z" fill="#E6E6E6"/>
<path d="M12.7668 2.39059C13.4301 2.39059 13.9679 1.85547 13.9679 1.19536C13.9679 0.535248 13.4301 0.00012207 12.7668 0.00012207C12.1034 0.00012207 11.5657 0.535248 11.5657 1.19536C11.5657 1.85547 12.1034 2.39059 12.7668 2.39059Z" fill="#E6E6E6"/>
<path d="M18.8467 2.39059C19.5101 2.39059 20.0479 1.85547 20.0479 1.19536C20.0479 0.535248 19.5101 0.00012207 18.8467 0.00012207C18.1834 0.00012207 17.6456 0.535248 17.6456 1.19536C17.6456 1.85547 18.1834 2.39059 18.8467 2.39059Z" fill="#E6E6E6"/>
<path d="M24.9268 2.39059C25.5902 2.39059 26.1279 1.85547 26.1279 1.19536C26.1279 0.535248 25.5902 0.00012207 24.9268 0.00012207C24.2635 0.00012207 23.7257 0.535248 23.7257 1.19536C23.7257 1.85547 24.2635 2.39059 24.9268 2.39059Z" fill="#E6E6E6"/>
<path d="M31.0068 2.39059C31.6701 2.39059 32.2079 1.85547 32.2079 1.19536C32.2079 0.535248 31.6701 0.00012207 31.0068 0.00012207C30.3434 0.00012207 29.8057 0.535248 29.8057 1.19536C29.8057 1.85547 30.3434 2.39059 31.0068 2.39059Z" fill="#E6E6E6"/>
<path d="M37.0869 2.39059C37.7502 2.39059 38.288 1.85547 38.288 1.19536C38.288 0.535248 37.7502 0.00012207 37.0869 0.00012207C36.4235 0.00012207 35.8857 0.535248 35.8857 1.19536C35.8857 1.85547 36.4235 2.39059 37.0869 2.39059Z" fill="#E6E6E6"/>
<path d="M43.1668 2.39059C43.8302 2.39059 44.3679 1.85547 44.3679 1.19536C44.3679 0.535248 43.8302 0.00012207 43.1668 0.00012207C42.5035 0.00012207 41.9657 0.535248 41.9657 1.19536C41.9657 1.85547 42.5035 2.39059 43.1668 2.39059Z" fill="#E6E6E6"/>
<path d="M49.2468 2.39059C49.9101 2.39059 50.4479 1.85547 50.4479 1.19536C50.4479 0.535248 49.9101 0.00012207 49.2468 0.00012207C48.5834 0.00012207 48.0457 0.535248 48.0457 1.19536C48.0457 1.85547 48.5834 2.39059 49.2468 2.39059Z" fill="#E6E6E6"/>
<path d="M55.3268 2.39059C55.9902 2.39059 56.528 1.85547 56.528 1.19536C56.528 0.535248 55.9902 0.00012207 55.3268 0.00012207C54.6635 0.00012207 54.1257 0.535248 54.1257 1.19536C54.1257 1.85547 54.6635 2.39059 55.3268 2.39059Z" fill="#E6E6E6"/>
<path d="M61.4068 2.39059C62.0702 2.39059 62.6079 1.85547 62.6079 1.19536C62.6079 0.535248 62.0702 0.00012207 61.4068 0.00012207C60.7434 0.00012207 60.2057 0.535248 60.2057 1.19536C60.2057 1.85547 60.7434 2.39059 61.4068 2.39059Z" fill="#E6E6E6"/>
<path d="M6.68671 8.51682C7.35006 8.51682 7.88782 7.98169 7.88782 7.32158C7.88782 6.66147 7.35006 6.12634 6.68671 6.12634C6.02335 6.12634 5.4856 6.66147 5.4856 7.32158C5.4856 7.98169 6.02335 8.51682 6.68671 8.51682Z" fill="#E6E6E6"/>
<path d="M12.7668 8.51682C13.4301 8.51682 13.9679 7.98169 13.9679 7.32158C13.9679 6.66147 13.4301 6.12634 12.7668 6.12634C12.1034 6.12634 11.5657 6.66147 11.5657 7.32158C11.5657 7.98169 12.1034 8.51682 12.7668 8.51682Z" fill="#E6E6E6"/>
<path d="M18.8467 8.51682C19.5101 8.51682 20.0479 7.98169 20.0479 7.32158C20.0479 6.66147 19.5101 6.12634 18.8467 6.12634C18.1834 6.12634 17.6456 6.66147 17.6456 7.32158C17.6456 7.98169 18.1834 8.51682 18.8467 8.51682Z" fill="#E6E6E6"/>
<path d="M24.9268 8.51682C25.5902 8.51682 26.1279 7.98169 26.1279 7.32158C26.1279 6.66147 25.5902 6.12634 24.9268 6.12634C24.2635 6.12634 23.7257 6.66147 23.7257 7.32158C23.7257 7.98169 24.2635 8.51682 24.9268 8.51682Z" fill="#10A37F"/>
<path d="M31.0068 8.51682C31.6701 8.51682 32.2079 7.98169 32.2079 7.32158C32.2079 6.66147 31.6701 6.12634 31.0068 6.12634C30.3434 6.12634 29.8057 6.66147 29.8057 7.32158C29.8057 7.98169 30.3434 8.51682 31.0068 8.51682Z" fill="#E6E6E6"/>
<path d="M37.0869 8.51682C37.7502 8.51682 38.288 7.98169 38.288 7.32158C38.288 6.66147 37.7502 6.12634 37.0869 6.12634C36.4235 6.12634 35.8857 6.66147 35.8857 7.32158C35.8857 7.98169 36.4235 8.51682 37.0869 8.51682Z" fill="#E6E6E6"/>
<path d="M43.1668 8.51682C43.8302 8.51682 44.3679 7.98169 44.3679 7.32158C44.3679 6.66147 43.8302 6.12634 43.1668 6.12634C42.5035 6.12634 41.9657 6.66147 41.9657 7.32158C41.9657 7.98169 42.5035 8.51682 43.1668 8.51682Z" fill="#E6E6E6"/>
<path d="M49.2468 8.51682C49.9101 8.51682 50.4479 7.98169 50.4479 7.32158C50.4479 6.66147 49.9101 6.12634 49.2468 6.12634C48.5834 6.12634 48.0457 6.66147 48.0457 7.32158C48.0457 7.98169 48.5834 8.51682 49.2468 8.51682Z" fill="#E6E6E6"/>
<path d="M55.3268 8.51682C55.9902 8.51682 56.528 7.98169 56.528 7.32158C56.528 6.66147 55.9902 6.12634 55.3268 6.12634C54.6635 6.12634 54.1257 6.66147 54.1257 7.32158C54.1257 7.98169 54.6635 8.51682 55.3268 8.51682Z" fill="#E6E6E6"/>
<path d="M61.4068 8.51682C62.0702 8.51682 62.6079 7.98169 62.6079 7.32158C62.6079 6.66147 62.0702 6.12634 61.4068 6.12634C60.7434 6.12634 60.2057 6.66147 60.2057 7.32158C60.2057 7.98169 60.7434 8.51682 61.4068 8.51682Z" fill="#E6E6E6"/>
<path d="M6.68671 14.643C7.35006 14.643 7.88782 14.1079 7.88782 13.4478C7.88782 12.7877 7.35006 12.2526 6.68671 12.2526C6.02335 12.2526 5.4856 12.7877 5.4856 13.4478C5.4856 14.1079 6.02335 14.643 6.68671 14.643Z" fill="#E6E6E6"/>
<path d="M12.7668 14.643C13.4301 14.643 13.9679 14.1079 13.9679 13.4478C13.9679 12.7877 13.4301 12.2526 12.7668 12.2526C12.1034 12.2526 11.5657 12.7877 11.5657 13.4478C11.5657 14.1079 12.1034 14.643 12.7668 14.643Z" fill="#E6E6E6"/>
<path d="M18.8467 14.643C19.5101 14.643 20.0479 14.1079 20.0479 13.4478C20.0479 12.7877 19.5101 12.2526 18.8467 12.2526C18.1834 12.2526 17.6456 12.7877 17.6456 13.4478C17.6456 14.1079 18.1834 14.643 18.8467 14.643Z" fill="#E6E6E6"/>
<path d="M24.9268 14.643C25.5902 14.643 26.1279 14.1079 26.1279 13.4478C26.1279 12.7877 25.5902 12.2526 24.9268 12.2526C24.2635 12.2526 23.7257 12.7877 23.7257 13.4478C23.7257 14.1079 24.2635 14.643 24.9268 14.643Z" fill="#E6E6E6"/>
<path d="M31.0068 14.643C31.6701 14.643 32.2079 14.1079 32.2079 13.4478C32.2079 12.7877 31.6701 12.2526 31.0068 12.2526C30.3434 12.2526 29.8057 12.7877 29.8057 13.4478C29.8057 14.1079 30.3434 14.643 31.0068 14.643Z" fill="#E6E6E6"/>
<path d="M37.0869 14.643C37.7502 14.643 38.288 14.1079 38.288 13.4478C38.288 12.7877 37.7502 12.2526 37.0869 12.2526C36.4235 12.2526 35.8857 12.7877 35.8857 13.4478C35.8857 14.1079 36.4235 14.643 37.0869 14.643Z" fill="#E6E6E6"/>
<path d="M43.1668 14.643C43.8302 14.643 44.3679 14.1079 44.3679 13.4478C44.3679 12.7877 43.8302 12.2526 43.1668 12.2526C42.5035 12.2526 41.9657 12.7877 41.9657 13.4478C41.9657 14.1079 42.5035 14.643 43.1668 14.643Z" fill="#E6E6E6"/>
<path d="M49.2468 14.643C49.9101 14.643 50.4479 14.1079 50.4479 13.4478C50.4479 12.7877 49.9101 12.2526 49.2468 12.2526C48.5834 12.2526 48.0457 12.7877 48.0457 13.4478C48.0457 14.1079 48.5834 14.643 49.2468 14.643Z" fill="#E6E6E6"/>
<path d="M55.3268 14.643C55.9902 14.643 56.528 14.1079 56.528 13.4478C56.528 12.7877 55.9902 12.2526 55.3268 12.2526C54.6635 12.2526 54.1257 12.7877 54.1257 13.4478C54.1257 14.1079 54.6635 14.643 55.3268 14.643Z" fill="#E6E6E6"/>
<path d="M61.4068 14.643C62.0702 14.643 62.6079 14.1079 62.6079 13.4478C62.6079 12.7877 62.0702 12.2526 61.4068 12.2526C60.7434 12.2526 60.2057 12.7877 60.2057 13.4478C60.2057 14.1079 60.7434 14.643 61.4068 14.643Z" fill="#E6E6E6"/>
<path d="M6.68671 20.7692C7.35006 20.7692 7.88782 20.2341 7.88782 19.574C7.88782 18.9138 7.35006 18.3787 6.68671 18.3787C6.02335 18.3787 5.4856 18.9138 5.4856 19.574C5.4856 20.2341 6.02335 20.7692 6.68671 20.7692Z" fill="#E6E6E6"/>
<path d="M12.7668 20.7692C13.4301 20.7692 13.9679 20.2341 13.9679 19.574C13.9679 18.9138 13.4301 18.3787 12.7668 18.3787C12.1034 18.3787 11.5657 18.9138 11.5657 19.574C11.5657 20.2341 12.1034 20.7692 12.7668 20.7692Z" fill="#E6E6E6"/>
<path d="M18.8467 20.7692C19.5101 20.7692 20.0479 20.2341 20.0479 19.574C20.0479 18.9138 19.5101 18.3787 18.8467 18.3787C18.1834 18.3787 17.6456 18.9138 17.6456 19.574C17.6456 20.2341 18.1834 20.7692 18.8467 20.7692Z" fill="#E6E6E6"/>
<path d="M24.9268 20.7692C25.5902 20.7692 26.1279 20.2341 26.1279 19.574C26.1279 18.9138 25.5902 18.3787 24.9268 18.3787C24.2635 18.3787 23.7257 18.9138 23.7257 19.574C23.7257 20.2341 24.2635 20.7692 24.9268 20.7692Z" fill="#E6E6E6"/>
<path d="M31.0068 20.7692C31.6701 20.7692 32.2079 20.2341 32.2079 19.574C32.2079 18.9138 31.6701 18.3787 31.0068 18.3787C30.3434 18.3787 29.8057 18.9138 29.8057 19.574C29.8057 20.2341 30.3434 20.7692 31.0068 20.7692Z" fill="#E6E6E6"/>
<path d="M37.0869 20.7692C37.7502 20.7692 38.288 20.2341 38.288 19.574C38.288 18.9138 37.7502 18.3787 37.0869 18.3787C36.4235 18.3787 35.8857 18.9138 35.8857 19.574C35.8857 20.2341 36.4235 20.7692 37.0869 20.7692Z" fill="#E6E6E6"/>
<path d="M43.1668 20.7692C43.8302 20.7692 44.3679 20.2341 44.3679 19.574C44.3679 18.9138 43.8302 18.3787 43.1668 18.3787C42.5035 18.3787 41.9657 18.9138 41.9657 19.574C41.9657 20.2341 42.5035 20.7692 43.1668 20.7692Z" fill="#E6E6E6"/>
<path d="M49.2468 20.7692C49.9101 20.7692 50.4479 20.2341 50.4479 19.574C50.4479 18.9138 49.9101 18.3787 49.2468 18.3787C48.5834 18.3787 48.0457 18.9138 48.0457 19.574C48.0457 20.2341 48.5834 20.7692 49.2468 20.7692Z" fill="#E6E6E6"/>
<path d="M55.3268 20.7692C55.9902 20.7692 56.528 20.2341 56.528 19.574C56.528 18.9138 55.9902 18.3787 55.3268 18.3787C54.6635 18.3787 54.1257 18.9138 54.1257 19.574C54.1257 20.2341 54.6635 20.7692 55.3268 20.7692Z" fill="#E6E6E6"/>
<path d="M61.4068 20.7692C62.0702 20.7692 62.6079 20.2341 62.6079 19.574C62.6079 18.9138 62.0702 18.3787 61.4068 18.3787C60.7434 18.3787 60.2057 18.9138 60.2057 19.574C60.2057 20.2341 60.7434 20.7692 61.4068 20.7692Z" fill="#E6E6E6"/>
<path d="M6.68671 26.8954C7.35006 26.8954 7.88782 26.3603 7.88782 25.7002C7.88782 25.0401 7.35006 24.5049 6.68671 24.5049C6.02335 24.5049 5.4856 25.0401 5.4856 25.7002C5.4856 26.3603 6.02335 26.8954 6.68671 26.8954Z" fill="#E6E6E6"/>
<path d="M12.7668 26.8954C13.4301 26.8954 13.9679 26.3603 13.9679 25.7002C13.9679 25.0401 13.4301 24.5049 12.7668 24.5049C12.1034 24.5049 11.5657 25.0401 11.5657 25.7002C11.5657 26.3603 12.1034 26.8954 12.7668 26.8954Z" fill="#10A37F"/>
<path d="M18.8467 26.8954C19.5101 26.8954 20.0479 26.3603 20.0479 25.7002C20.0479 25.0401 19.5101 24.5049 18.8467 24.5049C18.1834 24.5049 17.6456 25.0401 17.6456 25.7002C17.6456 26.3603 18.1834 26.8954 18.8467 26.8954Z" fill="#E6E6E6"/>
<path d="M24.9268 26.8954C25.5902 26.8954 26.1279 26.3603 26.1279 25.7002C26.1279 25.0401 25.5902 24.5049 24.9268 24.5049C24.2635 24.5049 23.7257 25.0401 23.7257 25.7002C23.7257 26.3603 24.2635 26.8954 24.9268 26.8954Z" fill="#E6E6E6"/>
<path d="M31.0068 26.8954C31.6701 26.8954 32.2079 26.3603 32.2079 25.7002C32.2079 25.0401 31.6701 24.5049 31.0068 24.5049C30.3434 24.5049 29.8057 25.0401 29.8057 25.7002C29.8057 26.3603 30.3434 26.8954 31.0068 26.8954Z" fill="#E6E6E6"/>
<path d="M37.0869 26.8954C37.7502 26.8954 38.288 26.3603 38.288 25.7002C38.288 25.0401 37.7502 24.5049 37.0869 24.5049C36.4235 24.5049 35.8857 25.0401 35.8857 25.7002C35.8857 26.3603 36.4235 26.8954 37.0869 26.8954Z" fill="#E6E6E6"/>
<path d="M43.1668 26.8954C43.8302 26.8954 44.3679 26.3603 44.3679 25.7002C44.3679 25.0401 43.8302 24.5049 43.1668 24.5049C42.5035 24.5049 41.9657 25.0401 41.9657 25.7002C41.9657 26.3603 42.5035 26.8954 43.1668 26.8954Z" fill="#E6E6E6"/>
<path d="M49.2468 26.8954C49.9101 26.8954 50.4479 26.3603 50.4479 25.7002C50.4479 25.0401 49.9101 24.5049 49.2468 24.5049C48.5834 24.5049 48.0457 25.0401 48.0457 25.7002C48.0457 26.3603 48.5834 26.8954 49.2468 26.8954Z" fill="#E6E6E6"/>
<path d="M55.3268 26.8954C55.9902 26.8954 56.528 26.3603 56.528 25.7002C56.528 25.0401 55.9902 24.5049 55.3268 24.5049C54.6635 24.5049 54.1257 25.0401 54.1257 25.7002C54.1257 26.3603 54.6635 26.8954 55.3268 26.8954Z" fill="#E6E6E6"/>
<path d="M61.4068 26.8954C62.0702 26.8954 62.6079 26.3603 62.6079 25.7002C62.6079 25.0401 62.0702 24.5049 61.4068 24.5049C60.7434 24.5049 60.2057 25.0401 60.2057 25.7002C60.2057 26.3603 60.7434 26.8954 61.4068 26.8954Z" fill="#E6E6E6"/>
<path d="M6.68671 33.0216C7.35006 33.0216 7.88782 32.4865 7.88782 31.8264C7.88782 31.1663 7.35006 30.6312 6.68671 30.6312C6.02335 30.6312 5.4856 31.1663 5.4856 31.8264C5.4856 32.4865 6.02335 33.0216 6.68671 33.0216Z" fill="#E6E6E6"/>
<path d="M12.7668 33.0216C13.4301 33.0216 13.9679 32.4865 13.9679 31.8264C13.9679 31.1663 13.4301 30.6312 12.7668 30.6312C12.1034 30.6312 11.5657 31.1663 11.5657 31.8264C11.5657 32.4865 12.1034 33.0216 12.7668 33.0216Z" fill="#E6E6E6"/>
<path d="M18.8467 33.0216C19.5101 33.0216 20.0479 32.4865 20.0479 31.8264C20.0479 31.1663 19.5101 30.6312 18.8467 30.6312C18.1834 30.6312 17.6456 31.1663 17.6456 31.8264C17.6456 32.4865 18.1834 33.0216 18.8467 33.0216Z" fill="#E6E6E6"/>
<path d="M24.9268 33.0216C25.5902 33.0216 26.1279 32.4865 26.1279 31.8264C26.1279 31.1663 25.5902 30.6312 24.9268 30.6312C24.2635 30.6312 23.7257 31.1663 23.7257 31.8264C23.7257 32.4865 24.2635 33.0216 24.9268 33.0216Z" fill="#E6E6E6"/>
<path d="M31.0068 33.0216C31.6701 33.0216 32.2079 32.4865 32.2079 31.8264C32.2079 31.1663 31.6701 30.6312 31.0068 30.6312C30.3434 30.6312 29.8057 31.1663 29.8057 31.8264C29.8057 32.4865 30.3434 33.0216 31.0068 33.0216Z" fill="#E6E6E6"/>
<path d="M37.0869 33.0216C37.7502 33.0216 38.288 32.4865 38.288 31.8264C38.288 31.1663 37.7502 30.6312 37.0869 30.6312C36.4235 30.6312 35.8857 31.1663 35.8857 31.8264C35.8857 32.4865 36.4235 33.0216 37.0869 33.0216Z" fill="#E6E6E6"/>
<path d="M43.1668 33.0216C43.8302 33.0216 44.3679 32.4865 44.3679 31.8264C44.3679 31.1663 43.8302 30.6312 43.1668 30.6312C42.5035 30.6312 41.9657 31.1663 41.9657 31.8264C41.9657 32.4865 42.5035 33.0216 43.1668 33.0216Z" fill="#E6E6E6"/>
<path d="M49.2468 33.0216C49.9101 33.0216 50.4479 32.4865 50.4479 31.8264C50.4479 31.1663 49.9101 30.6312 49.2468 30.6312C48.5834 30.6312 48.0457 31.1663 48.0457 31.8264C48.0457 32.4865 48.5834 33.0216 49.2468 33.0216Z" fill="#E6E6E6"/>
<path d="M55.3268 33.0216C55.9902 33.0216 56.528 32.4865 56.528 31.8264C56.528 31.1663 55.9902 30.6312 55.3268 30.6312C54.6635 30.6312 54.1257 31.1663 54.1257 31.8264C54.1257 32.4865 54.6635 33.0216 55.3268 33.0216Z" fill="#E6E6E6"/>
<path d="M61.4068 33.0216C62.0702 33.0216 62.6079 32.4865 62.6079 31.8264C62.6079 31.1663 62.0702 30.6312 61.4068 30.6312C60.7434 30.6312 60.2057 31.1663 60.2057 31.8264C60.2057 32.4865 60.7434 33.0216 61.4068 33.0216Z" fill="#E6E6E6"/>
<path d="M6.68671 39.1479C7.35006 39.1479 7.88782 38.6127 7.88782 37.9526C7.88782 37.2925 7.35006 36.7574 6.68671 36.7574C6.02335 36.7574 5.4856 37.2925 5.4856 37.9526C5.4856 38.6127 6.02335 39.1479 6.68671 39.1479Z" fill="#E6E6E6"/>
<path d="M12.7668 39.1479C13.4301 39.1479 13.9679 38.6127 13.9679 37.9526C13.9679 37.2925 13.4301 36.7574 12.7668 36.7574C12.1034 36.7574 11.5657 37.2925 11.5657 37.9526C11.5657 38.6127 12.1034 39.1479 12.7668 39.1479Z" fill="#E6E6E6"/>
<path d="M18.8467 39.1479C19.5101 39.1479 20.0479 38.6127 20.0479 37.9526C20.0479 37.2925 19.5101 36.7574 18.8467 36.7574C18.1834 36.7574 17.6456 37.2925 17.6456 37.9526C17.6456 38.6127 18.1834 39.1479 18.8467 39.1479Z" fill="#10A37F"/>
<path d="M24.9268 39.1479C25.5902 39.1479 26.1279 38.6127 26.1279 37.9526C26.1279 37.2925 25.5902 36.7574 24.9268 36.7574C24.2635 36.7574 23.7257 37.2925 23.7257 37.9526C23.7257 38.6127 24.2635 39.1479 24.9268 39.1479Z" fill="#E6E6E6"/>
<path d="M31.0068 39.1479C31.6701 39.1479 32.2079 38.6127 32.2079 37.9526C32.2079 37.2925 31.6701 36.7574 31.0068 36.7574C30.3434 36.7574 29.8057 37.2925 29.8057 37.9526C29.8057 38.6127 30.3434 39.1479 31.0068 39.1479Z" fill="#E6E6E6"/>
<path d="M37.0869 39.1479C37.7502 39.1479 38.288 38.6127 38.288 37.9526C38.288 37.2925 37.7502 36.7574 37.0869 36.7574C36.4235 36.7574 35.8857 37.2925 35.8857 37.9526C35.8857 38.6127 36.4235 39.1479 37.0869 39.1479Z" fill="#E6E6E6"/>
<path d="M43.1668 39.1479C43.8302 39.1479 44.3679 38.6127 44.3679 37.9526C44.3679 37.2925 43.8302 36.7574 43.1668 36.7574C42.5035 36.7574 41.9657 37.2925 41.9657 37.9526C41.9657 38.6127 42.5035 39.1479 43.1668 39.1479Z" fill="#E6E6E6"/>
<path d="M49.2468 39.1479C49.9101 39.1479 50.4479 38.6127 50.4479 37.9526C50.4479 37.2925 49.9101 36.7574 49.2468 36.7574C48.5834 36.7574 48.0457 37.2925 48.0457 37.9526C48.0457 38.6127 48.5834 39.1479 49.2468 39.1479Z" fill="#E6E6E6"/>
<path d="M55.3268 39.1479C55.9902 39.1479 56.528 38.6127 56.528 37.9526C56.528 37.2925 55.9902 36.7574 55.3268 36.7574C54.6635 36.7574 54.1257 37.2925 54.1257 37.9526C54.1257 38.6127 54.6635 39.1479 55.3268 39.1479Z" fill="#E6E6E6"/>
<path d="M61.4068 39.1479C62.0702 39.1479 62.6079 38.6127 62.6079 37.9526C62.6079 37.2925 62.0702 36.7574 61.4068 36.7574C60.7434 36.7574 60.2057 37.2925 60.2057 37.9526C60.2057 38.6127 60.7434 39.1479 61.4068 39.1479Z" fill="#E6E6E6"/>
<path d="M6.68671 45.2741C7.35006 45.2741 7.88782 44.739 7.88782 44.0788C7.88782 43.4187 7.35006 42.8836 6.68671 42.8836C6.02335 42.8836 5.4856 43.4187 5.4856 44.0788C5.4856 44.739 6.02335 45.2741 6.68671 45.2741Z" fill="#E6E6E6"/>
<path d="M12.7668 45.2741C13.4301 45.2741 13.9679 44.739 13.9679 44.0788C13.9679 43.4187 13.4301 42.8836 12.7668 42.8836C12.1034 42.8836 11.5657 43.4187 11.5657 44.0788C11.5657 44.739 12.1034 45.2741 12.7668 45.2741Z" fill="#E6E6E6"/>
<path d="M18.8467 45.2741C19.5101 45.2741 20.0479 44.739 20.0479 44.0788C20.0479 43.4187 19.5101 42.8836 18.8467 42.8836C18.1834 42.8836 17.6456 43.4187 17.6456 44.0788C17.6456 44.739 18.1834 45.2741 18.8467 45.2741Z" fill="#E6E6E6"/>
<path d="M24.9268 45.2741C25.5902 45.2741 26.1279 44.739 26.1279 44.0788C26.1279 43.4187 25.5902 42.8836 24.9268 42.8836C24.2635 42.8836 23.7257 43.4187 23.7257 44.0788C23.7257 44.739 24.2635 45.2741 24.9268 45.2741Z" fill="#E6E6E6"/>
<path d="M31.0068 45.2741C31.6701 45.2741 32.2079 44.739 32.2079 44.0788C32.2079 43.4187 31.6701 42.8836 31.0068 42.8836C30.3434 42.8836 29.8057 43.4187 29.8057 44.0788C29.8057 44.739 30.3434 45.2741 31.0068 45.2741Z" fill="#E6E6E6"/>
<path d="M37.0869 45.2741C37.7502 45.2741 38.288 44.739 38.288 44.0788C38.288 43.4187 37.7502 42.8836 37.0869 42.8836C36.4235 42.8836 35.8857 43.4187 35.8857 44.0788C35.8857 44.739 36.4235 45.2741 37.0869 45.2741Z" fill="#E6E6E6"/>
<path d="M43.1668 45.2741C43.8302 45.2741 44.3679 44.739 44.3679 44.0788C44.3679 43.4187 43.8302 42.8836 43.1668 42.8836C42.5035 42.8836 41.9657 43.4187 41.9657 44.0788C41.9657 44.739 42.5035 45.2741 43.1668 45.2741Z" fill="#E6E6E6"/>
<path d="M49.2468 45.2741C49.9101 45.2741 50.4479 44.739 50.4479 44.0788C50.4479 43.4187 49.9101 42.8836 49.2468 42.8836C48.5834 42.8836 48.0457 43.4187 48.0457 44.0788C48.0457 44.739 48.5834 45.2741 49.2468 45.2741Z" fill="#E6E6E6"/>
<path d="M55.3268 45.2741C55.9902 45.2741 56.528 44.739 56.528 44.0788C56.528 43.4187 55.9902 42.8836 55.3268 42.8836C54.6635 42.8836 54.1257 43.4187 54.1257 44.0788C54.1257 44.739 54.6635 45.2741 55.3268 45.2741Z" fill="#E6E6E6"/>
<path d="M61.4068 45.2741C62.0702 45.2741 62.6079 44.739 62.6079 44.0788C62.6079 43.4187 62.0702 42.8836 61.4068 42.8836C60.7434 42.8836 60.2057 43.4187 60.2057 44.0788C60.2057 44.739 60.7434 45.2741 61.4068 45.2741Z" fill="#E6E6E6"/>
<path d="M6.68671 51.4002C7.35006 51.4002 7.88782 50.8651 7.88782 50.205C7.88782 49.5449 7.35006 49.0098 6.68671 49.0098C6.02335 49.0098 5.4856 49.5449 5.4856 50.205C5.4856 50.8651 6.02335 51.4002 6.68671 51.4002Z" fill="#E6E6E6"/>
<path d="M12.7668 51.4002C13.4301 51.4002 13.9679 50.8651 13.9679 50.205C13.9679 49.5449 13.4301 49.0098 12.7668 49.0098C12.1034 49.0098 11.5657 49.5449 11.5657 50.205C11.5657 50.8651 12.1034 51.4002 12.7668 51.4002Z" fill="#E6E6E6"/>
<path d="M18.8467 51.4002C19.5101 51.4002 20.0479 50.8651 20.0479 50.205C20.0479 49.5449 19.5101 49.0098 18.8467 49.0098C18.1834 49.0098 17.6456 49.5449 17.6456 50.205C17.6456 50.8651 18.1834 51.4002 18.8467 51.4002Z" fill="#E6E6E6"/>
<path d="M24.9268 51.4002C25.5902 51.4002 26.1279 50.8651 26.1279 50.205C26.1279 49.5449 25.5902 49.0098 24.9268 49.0098C24.2635 49.0098 23.7257 49.5449 23.7257 50.205C23.7257 50.8651 24.2635 51.4002 24.9268 51.4002Z" fill="#E6E6E6"/>
<path d="M31.0068 51.4002C31.6701 51.4002 32.2079 50.8651 32.2079 50.205C32.2079 49.5449 31.6701 49.0098 31.0068 49.0098C30.3434 49.0098 29.8057 49.5449 29.8057 50.205C29.8057 50.8651 30.3434 51.4002 31.0068 51.4002Z" fill="#E6E6E6"/>
<path d="M37.0869 51.4002C37.7502 51.4002 38.288 50.8651 38.288 50.205C38.288 49.5449 37.7502 49.0098 37.0869 49.0098C36.4235 49.0098 35.8857 49.5449 35.8857 50.205C35.8857 50.8651 36.4235 51.4002 37.0869 51.4002Z" fill="#E6E6E6"/>
<path d="M43.1668 51.4002C43.8302 51.4002 44.3679 50.8651 44.3679 50.205C44.3679 49.5449 43.8302 49.0098 43.1668 49.0098C42.5035 49.0098 41.9657 49.5449 41.9657 50.205C41.9657 50.8651 42.5035 51.4002 43.1668 51.4002Z" fill="#E6E6E6"/>
<path d="M49.2468 51.4002C49.9101 51.4002 50.4479 50.8651 50.4479 50.205C50.4479 49.5449 49.9101 49.0098 49.2468 49.0098C48.5834 49.0098 48.0457 49.5449 48.0457 50.205C48.0457 50.8651 48.5834 51.4002 49.2468 51.4002Z" fill="#E6E6E6"/>
<path d="M55.3268 51.4002C55.9902 51.4002 56.528 50.8651 56.528 50.205C56.528 49.5449 55.9902 49.0098 55.3268 49.0098C54.6635 49.0098 54.1257 49.5449 54.1257 50.205C54.1257 50.8651 54.6635 51.4002 55.3268 51.4002Z" fill="#E6E6E6"/>
<path d="M61.4068 51.4002C62.0702 51.4002 62.6079 50.8651 62.6079 50.205C62.6079 49.5449 62.0702 49.0098 61.4068 49.0098C60.7434 49.0098 60.2057 49.5449 60.2057 50.205C60.2057 50.8651 60.7434 51.4002 61.4068 51.4002Z" fill="#E6E6E6"/>
<path d="M6.68671 57.5265C7.35006 57.5265 7.88782 56.9913 7.88782 56.3312C7.88782 55.6711 7.35006 55.136 6.68671 55.136C6.02335 55.136 5.4856 55.6711 5.4856 56.3312C5.4856 56.9913 6.02335 57.5265 6.68671 57.5265Z" fill="#E6E6E6"/>
<path d="M12.7668 57.5265C13.4301 57.5265 13.9679 56.9913 13.9679 56.3312C13.9679 55.6711 13.4301 55.136 12.7668 55.136C12.1034 55.136 11.5657 55.6711 11.5657 56.3312C11.5657 56.9913 12.1034 57.5265 12.7668 57.5265Z" fill="#E6E6E6"/>
<path d="M18.8467 57.5265C19.5101 57.5265 20.0479 56.9913 20.0479 56.3312C20.0479 55.6711 19.5101 55.136 18.8467 55.136C18.1834 55.136 17.6456 55.6711 17.6456 56.3312C17.6456 56.9913 18.1834 57.5265 18.8467 57.5265Z" fill="#E6E6E6"/>
<path d="M24.9268 57.5265C25.5902 57.5265 26.1279 56.9913 26.1279 56.3312C26.1279 55.6711 25.5902 55.136 24.9268 55.136C24.2635 55.136 23.7257 55.6711 23.7257 56.3312C23.7257 56.9913 24.2635 57.5265 24.9268 57.5265Z" fill="#E6E6E6"/>
<path d="M31.0068 57.5265C31.6701 57.5265 32.2079 56.9913 32.2079 56.3312C32.2079 55.6711 31.6701 55.136 31.0068 55.136C30.3434 55.136 29.8057 55.6711 29.8057 56.3312C29.8057 56.9913 30.3434 57.5265 31.0068 57.5265Z" fill="#E6E6E6"/>
<path d="M37.0869 57.5265C37.7502 57.5265 38.288 56.9913 38.288 56.3312C38.288 55.6711 37.7502 55.136 37.0869 55.136C36.4235 55.136 35.8857 55.6711 35.8857 56.3312C35.8857 56.9913 36.4235 57.5265 37.0869 57.5265Z" fill="#E6E6E6"/>
<path d="M43.1668 57.5265C43.8302 57.5265 44.3679 56.9913 44.3679 56.3312C44.3679 55.6711 43.8302 55.136 43.1668 55.136C42.5035 55.136 41.9657 55.6711 41.9657 56.3312C41.9657 56.9913 42.5035 57.5265 43.1668 57.5265Z" fill="#E6E6E6"/>
<path d="M49.2468 57.5265C49.9101 57.5265 50.4479 56.9913 50.4479 56.3312C50.4479 55.6711 49.9101 55.136 49.2468 55.136C48.5834 55.136 48.0457 55.6711 48.0457 56.3312C48.0457 56.9913 48.5834 57.5265 49.2468 57.5265Z" fill="#E6E6E6"/>
<path d="M55.3268 57.5265C55.9902 57.5265 56.528 56.9913 56.528 56.3312C56.528 55.6711 55.9902 55.136 55.3268 55.136C54.6635 55.136 54.1257 55.6711 54.1257 56.3312C54.1257 56.9913 54.6635 57.5265 55.3268 57.5265Z" fill="#E6E6E6"/>
<path d="M61.4068 57.5265C62.0702 57.5265 62.6079 56.9913 62.6079 56.3312C62.6079 55.6711 62.0702 55.136 61.4068 55.136C60.7434 55.136 60.2057 55.6711 60.2057 56.3312C60.2057 56.9913 60.7434 57.5265 61.4068 57.5265Z" fill="#E6E6E6"/>
<path d="M49.927 47.4308L64.1822 22.5737H35.6565L21.3861 47.1698L35.6565 71.7661H64.1973L78.4412 47.2159L49.927 47.4308Z" fill="#3F3D56"/>
<path d="M81.9815 45.1281L82.0082 45.0821L67.7378 20.486H67.7225L53.4673 45.3431L81.9815 45.1281Z" fill="#10A37F"/>
<path d="M102.627 21.4953C102.394 21.225 102.278 20.8292 102.278 20.308C102.278 19.7916 102.394 19.3983 102.627 19.1278C102.746 18.9921 102.895 18.8852 103.063 18.815C103.23 18.7447 103.411 18.7131 103.592 18.7223C103.775 18.7128 103.958 18.7443 104.127 18.8145C104.296 18.8847 104.447 18.9918 104.569 19.1278C104.804 19.3982 104.921 19.7916 104.921 20.308C104.921 20.8293 104.804 21.2251 104.569 21.4953C104.447 21.6314 104.296 21.7385 104.127 21.8087C103.958 21.8789 103.775 21.9104 103.592 21.9009C103.411 21.9102 103.23 21.8785 103.063 21.8082C102.895 21.738 102.746 21.631 102.627 21.4953ZM104.011 21.0752C104.116 20.8336 104.161 20.5705 104.143 20.308C104.16 20.0486 104.113 19.789 104.007 19.5516C103.968 19.477 103.908 19.415 103.834 19.3729C103.761 19.3309 103.677 19.3105 103.592 19.3142C103.509 19.311 103.427 19.3316 103.355 19.3737C103.283 19.4159 103.226 19.4776 103.188 19.5516C103.084 19.7897 103.039 20.049 103.056 20.308C103.039 20.5693 103.084 20.831 103.188 21.0715C103.225 21.1456 103.283 21.2074 103.355 21.2495C103.427 21.2916 103.509 21.3123 103.592 21.309C103.677 21.3139 103.762 21.2944 103.836 21.253C103.91 21.2116 103.971 21.1499 104.011 21.0752ZM103.541 23.998L106.566 18.7954H107.381L104.348 23.998H103.541ZM106.35 23.6437C106.117 23.3733 106.001 22.975 106.001 22.4489C106.001 21.9327 106.117 21.5405 106.35 21.2725C106.477 21.1451 106.629 21.044 106.796 20.9751C106.963 20.9061 107.142 20.8706 107.322 20.8706C107.503 20.8706 107.682 20.9061 107.849 20.9751C108.016 21.044 108.168 21.1451 108.295 21.2725C108.528 21.5404 108.644 21.935 108.644 22.4562C108.644 22.9775 108.528 23.3734 108.295 23.6437C108.168 23.7721 108.017 23.8741 107.85 23.9437C107.683 24.0133 107.504 24.0492 107.322 24.0492C107.141 24.0492 106.962 24.0133 106.795 23.9437C106.628 23.8741 106.477 23.7721 106.35 23.6437ZM107.733 23.2198C107.838 22.9793 107.883 22.7176 107.866 22.4562C107.883 22.1969 107.836 21.9373 107.73 21.7C107.689 21.6279 107.629 21.5679 107.557 21.5262C107.486 21.4844 107.404 21.4624 107.321 21.4624C107.237 21.4624 107.156 21.4844 107.084 21.5262C107.012 21.5679 106.952 21.6279 106.911 21.7C106.807 21.9381 106.762 22.1973 106.779 22.4562C106.762 22.7176 106.807 22.9793 106.911 23.2198C106.953 23.292 107.012 23.3519 107.085 23.3936C107.157 23.4353 107.239 23.4573 107.322 23.4573C107.406 23.4573 107.488 23.4353 107.56 23.3936C107.632 23.3519 107.692 23.292 107.733 23.2198Z" fill="#3F3D56"/>
<path d="M0.348814 66.3742C0.116271 66.1038 0 65.708 0 65.1868C0 64.6705 0.116271 64.2771 0.348814 64.0067C0.468597 63.871 0.617669 63.764 0.784872 63.6938C0.952075 63.6236 1.13308 63.5919 1.31433 63.6011C1.49726 63.5916 1.68001 63.6232 1.84907 63.6933C2.01813 63.7635 2.1692 63.8706 2.29111 64.0067C2.52595 64.2771 2.64342 64.6704 2.64351 65.1868C2.64351 65.7081 2.52604 66.1039 2.29111 66.3742C2.16921 66.5102 2.01815 66.6173 1.84909 66.6875C1.68002 66.7577 1.49727 66.7893 1.31433 66.7798C1.13307 66.789 0.952063 66.7573 0.784858 66.6871C0.617653 66.6168 0.468583 66.5099 0.348814 66.3742ZM1.73306 65.954C1.83785 65.7124 1.88316 65.4494 1.86521 65.1868C1.88246 64.9274 1.83578 64.6678 1.72922 64.4305C1.68984 64.3558 1.62991 64.2938 1.55644 64.2518C1.48297 64.2097 1.399 64.1893 1.31433 64.193C1.23121 64.1898 1.14892 64.2105 1.07732 64.2526C1.00571 64.2947 0.947817 64.3565 0.910578 64.4305C0.806751 64.6686 0.761408 64.9278 0.778302 65.1868C0.761019 65.4482 0.806354 65.7098 0.910578 65.9503C0.947781 66.0244 1.00566 66.0862 1.07728 66.1283C1.14889 66.1704 1.2312 66.1911 1.31433 66.1879C1.39927 66.1927 1.48383 66.1733 1.55802 66.1318C1.63222 66.0904 1.69295 66.0287 1.73306 65.954ZM1.26311 68.8769L4.28833 63.6742H5.10338L2.07073 68.8769H1.26311ZM4.0718 68.5225C3.83913 68.2521 3.72286 67.8538 3.72298 67.3277C3.72298 66.8115 3.83925 66.4193 4.0718 66.1513C4.19943 66.0239 4.35107 65.9229 4.51803 65.8539C4.68498 65.785 4.86397 65.7495 5.04474 65.7495C5.2255 65.7495 5.40449 65.785 5.57144 65.8539C5.7384 65.9229 5.89004 66.0239 6.01768 66.1513C6.25009 66.4193 6.36636 66.8139 6.36649 67.3351C6.36649 67.8564 6.25022 68.2522 6.01768 68.5225C5.89064 68.6509 5.73919 68.7529 5.57216 68.8225C5.40512 68.8922 5.22583 68.928 5.04474 68.928C4.86364 68.928 4.68435 68.8922 4.51732 68.8225C4.35028 68.7529 4.19883 68.6509 4.0718 68.5225ZM5.45578 68.0987C5.56 67.8582 5.60534 67.5964 5.58806 67.3351C5.60529 67.0757 5.55865 66.8161 5.4522 66.5788C5.41119 66.5067 5.35168 66.4467 5.27976 66.405C5.20784 66.3633 5.12607 66.3413 5.04281 66.3413C4.95956 66.3413 4.87779 66.3633 4.80587 66.405C4.73395 66.4467 4.67444 66.5067 4.63343 66.5788C4.52971 66.8169 4.48441 67.0761 4.50128 67.3351C4.48404 67.5964 4.52933 67.8581 4.63343 68.0987C4.67485 68.1708 4.7347 68.2308 4.80691 68.2725C4.87911 68.3142 4.96112 68.3361 5.04461 68.3361C5.1281 68.3361 5.2101 68.3142 5.28231 68.2725C5.35452 68.2308 5.41436 68.1708 5.45578 68.0987Z" fill="#3F3D56"/>
<path d="M68.4575 36.4218L68.2728 36.373L72.3019 21.2906H95.6717V21.4808H72.4487L68.4575 36.4218Z" fill="#2F2E41"/>
<path d="M97.5813 23.3809C97.1848 23.3809 96.7971 23.2639 96.4674 23.0447C96.1377 22.8255 95.8807 22.5138 95.7289 22.1493C95.5772 21.7847 95.5375 21.3835 95.6148 20.9965C95.6922 20.6094 95.8831 20.2539 96.1636 19.9749C96.444 19.6959 96.8012 19.5058 97.1902 19.4288C97.5791 19.3519 97.9822 19.3914 98.3486 19.5424C98.715 19.6934 99.0281 19.9491 99.2485 20.2772C99.4688 20.6054 99.5864 20.9911 99.5864 21.3857C99.5858 21.9147 99.3743 22.4218 98.9984 22.7959C98.6225 23.1699 98.1129 23.3803 97.5813 23.3809ZM97.5813 19.5805C97.2225 19.5805 96.8718 19.6864 96.5735 19.8848C96.2752 20.0831 96.0426 20.365 95.9053 20.6949C95.768 21.0248 95.7321 21.3877 95.8021 21.7379C95.8721 22.0881 96.0449 22.4097 96.2986 22.6622C96.5523 22.9147 96.8755 23.0866 97.2274 23.1562C97.5793 23.2259 97.9441 23.1901 98.2755 23.0535C98.607 22.9169 98.8903 22.6855 99.0897 22.3886C99.289 22.0918 99.3954 21.7428 99.3954 21.3857C99.3949 20.9071 99.2036 20.4483 98.8635 20.1099C98.5234 19.7714 98.0623 19.5811 97.5813 19.5805Z" fill="#2F2E41"/>
<path d="M97.5813 22.1458C98.0032 22.1458 98.3451 21.8055 98.3451 21.3857C98.3451 20.9659 98.0032 20.6256 97.5813 20.6256C97.1595 20.6256 96.8175 20.9659 96.8175 21.3857C96.8175 21.8055 97.1595 22.1458 97.5813 22.1458Z" fill="#10A37F"/>
<path d="M38.953 51.2286L39.1376 51.2774L35.1086 66.3596H11.7388V66.1696H34.9618L38.953 51.2286Z" fill="#2F2E41"/>
<path d="M9.82912 64.2693C10.2257 64.2693 10.6133 64.3864 10.9431 64.6056C11.2728 64.8248 11.5298 65.1365 11.6815 65.501C11.8333 65.8656 11.873 66.2668 11.7956 66.6538C11.7183 67.0409 11.5273 67.3964 11.2469 67.6754C10.9665 67.9544 10.6092 68.1445 10.2203 68.2214C9.83135 68.2984 9.4282 68.2589 9.06183 68.1079C8.69546 67.9569 8.38232 67.7012 8.162 67.3731C7.94169 67.0449 7.8241 66.6592 7.8241 66.2646C7.8247 65.7356 8.03614 65.2284 8.41202 64.8544C8.7879 64.4804 9.29754 64.2699 9.82912 64.2693ZM9.82912 68.0698C10.1879 68.0698 10.5386 67.9639 10.837 67.7655C11.1353 67.5672 11.3678 67.2852 11.5051 66.9554C11.6424 66.6255 11.6783 66.2626 11.6083 65.9124C11.5383 65.5622 11.3656 65.2406 11.1119 64.9881C10.8582 64.7356 10.5349 64.5637 10.183 64.4941C9.83114 64.4244 9.46639 64.4601 9.13491 64.5968C8.80343 64.7334 8.52011 64.9648 8.32078 65.2616C8.12145 65.5585 8.01505 65.9075 8.01505 66.2646C8.0156 66.7432 8.2069 67.202 8.54698 67.5404C8.88707 67.8789 9.34817 68.0692 9.82912 68.0698Z" fill="#2F2E41"/>
<path d="M9.82913 67.0246C10.251 67.0246 10.5929 66.6843 10.5929 66.2645C10.5929 65.8448 10.251 65.5045 9.82913 65.5045C9.40728 65.5045 9.06531 65.8448 9.06531 66.2645C9.06531 66.6843 9.40728 67.0246 9.82913 67.0246Z" fill="#10A37F"/>
<path d="M114.971 96.3462H112.072V100.27H114.971V96.3462Z" fill="#E7CED1"/>
<path d="M129.699 96.3462H126.8V100.27H129.699V96.3462Z" fill="#E7CED1"/>
<path d="M131.711 63.803C131.462 63.803 131.217 63.7494 130.991 63.646C130.765 63.5425 130.565 63.3917 130.403 63.2038C130.242 63.0159 130.123 62.7954 130.055 62.5575C129.988 62.3196 129.973 62.07 130.011 61.8257L130.486 58.8133L130.627 57.9175H132.83L132.946 59.1869L133.405 61.7959C133.449 62.0419 133.437 62.2944 133.372 62.5357C133.307 62.7769 133.189 63.001 133.028 63.1923C132.866 63.3835 132.665 63.5373 132.437 63.6428C132.21 63.7483 131.962 63.803 131.711 63.803Z" fill="#E7CED1"/>
<path d="M110.14 63.4568C109.892 63.4568 109.646 63.4032 109.421 63.2998C109.195 63.1964 108.995 63.0455 108.833 62.8576C108.672 62.6697 108.553 62.4492 108.485 62.2113C108.417 61.9734 108.402 61.7238 108.441 61.4795L108.916 58.4672L109.057 57.5713H111.26L111.376 58.8407L111.835 61.4497C111.878 61.6958 111.867 61.9483 111.802 62.1895C111.737 62.4307 111.619 62.6548 111.458 62.8461C111.296 63.0373 111.095 63.1911 110.867 63.2966C110.639 63.4021 110.391 63.4568 110.14 63.4568Z" fill="#E7CED1"/>
<path d="M130.047 97.1539L126.568 97.0385L120.886 62.8798L115.203 97.1539L111.84 97.0385L110.912 57.5712H130.395L130.047 97.1539Z" fill="#2F2E41"/>
<path d="M114.899 102.994C111.947 103.079 109.636 102.285 108.121 100.4C107.962 100.201 107.868 99.959 107.851 99.7056C107.834 99.4521 107.895 99.1996 108.027 98.9819C108.151 98.7764 108.331 98.6109 108.547 98.5052C108.763 98.3995 109.006 98.358 109.245 98.3859L110.204 98.4974L112.201 97.5043C111.793 99.8687 112.904 99.9132 115.563 99.1207L116.041 101.563C116.075 101.734 116.071 101.91 116.03 102.079C115.989 102.247 115.911 102.405 115.802 102.541C115.694 102.677 115.557 102.788 115.401 102.867C115.245 102.945 115.073 102.988 114.899 102.994Z" fill="#2F2E41"/>
<path d="M129.627 102.994C126.675 103.079 124.364 102.285 122.849 100.4C122.69 100.201 122.596 99.959 122.579 99.7056C122.562 99.4521 122.623 99.1996 122.755 98.9819C122.879 98.7764 123.059 98.6109 123.275 98.5052C123.491 98.3995 123.734 98.358 123.973 98.3859L124.932 98.4974L126.914 97.6652C126.506 100.03 127.632 99.9132 130.291 99.1207L130.769 101.563C130.803 101.734 130.799 101.91 130.758 102.079C130.717 102.247 130.639 102.405 130.53 102.541C130.422 102.678 130.285 102.788 130.129 102.867C129.973 102.945 129.801 102.988 129.627 102.994Z" fill="#2F2E41"/>
<path d="M119.726 21.4506C122.288 21.4506 124.365 19.3839 124.365 16.8346C124.365 14.2852 122.288 12.2185 119.726 12.2185C117.164 12.2185 115.087 14.2852 115.087 16.8346C115.087 19.3839 117.164 21.4506 119.726 21.4506Z" fill="#E7CED1"/>
<path d="M124.365 25.2589L119.378 25.4897L119.146 20.2966L123.437 18.681L124.365 25.2589Z" fill="#E7CED1"/>
<path d="M131.555 59.1869C124.755 57.9064 117.007 57.4477 111.84 59.1869L113.464 25.2589L118.914 23.6432L119.32 23.0085L123.901 22.2584L126.104 22.9508L127.496 25.0281L133.526 28.3747C130.558 39.8012 129.679 50.183 131.555 59.1869Z" fill="#2F2E41"/>
<path d="M134.802 58.9561L129.815 58.3791C130.855 53.3396 130.43 46.7846 130.685 40.2034C130.847 36.0294 131.717 32.2307 132.019 27.5669C133.91 28.0576 134.889 29.8052 134.9 31.8646C134.954 41.6324 135.881 50.7846 134.802 58.9561Z" fill="#2F2E41"/>
<path d="M113.116 58.4945L108.245 58.1483L111.144 41.7613L112.126 28.1247C111.973 26.1361 113.041 24.9805 114.623 24.9127C118.079 28.9852 118.48 34.5978 117.407 40.9535L113.116 58.4945Z" fill="#2F2E41"/>
<path d="M121.231 20.2285L120.632 18.5339C120.297 17.583 119.708 16.7409 118.928 16.0976C118.149 15.4543 117.208 15.034 116.207 14.8816L112.458 14.7961L113.499 13.1315C114.001 12.3287 114.718 11.6819 115.571 11.2644C116.423 10.8468 117.376 10.6752 118.322 10.769L122.069 11.1406C122.961 11.2291 123.781 11.6652 124.351 12.3536C124.921 13.042 125.195 13.9269 125.111 14.8151L124.768 18.482C124.731 18.874 124.594 19.2501 124.37 19.5747C124.146 19.8993 123.843 20.1615 123.488 20.3365C123.134 20.5115 122.741 20.5934 122.345 20.5745C121.95 20.5556 121.567 20.4365 121.231 20.2285Z" fill="#2F2E41"/>
</svg>
