<svg width="140" height="103" viewBox="0 0 140 103" fill="none" xmlns="http://www.w3.org/2000/svg">
<g clip-path="url(#clip0_27_495)">
<path d="M108.976 46.7089C108.714 46.0163 109.088 45.67 109.238 45.0543C109.387 44.4387 108.901 42.5147 108.901 42.5147C108.901 42.5147 107.33 35.8579 106.844 34.5496C106.638 33.996 106.191 33.6151 105.744 33.3594C105.714 33.1896 105.67 33.08 105.61 33.0489C105.177 32.8259 104.098 32.3417 103.378 32.2079C103.244 31.9701 103.084 31.7482 102.903 31.5462C103.029 31.2968 103.088 31.017 103.072 30.7363C103.026 30.0103 102.492 29.3598 102.562 28.6358C102.614 28.0867 103.004 27.6357 103.155 27.1062C103.218 26.8683 103.233 26.6197 103.199 26.3757C103.165 26.1317 103.082 25.8975 102.956 25.6877C103.067 25.8088 103.178 25.9298 103.288 26.0509C103.439 25.8189 103.511 25.5425 103.494 25.264C103.478 24.9856 103.373 24.7204 103.196 24.5092C102.845 24.1111 102.26 23.9617 101.988 23.5032C101.708 23.0321 101.858 22.3919 101.594 21.9116C100.947 20.7349 99.2912 21.569 98.2991 21.1583C97.8915 20.9896 97.5816 20.8038 97.1229 20.8171C96.7329 20.8402 96.3474 20.9142 95.9756 21.0376C95.4423 21.1964 94.9782 21.5387 94.6607 22.0073C94.692 21.9706 94.7264 21.9368 94.7634 21.9063C95.0038 21.7125 95.4254 21.7286 95.5523 22.0144C95.5826 22.0862 95.5953 22.1646 95.5894 22.2427C95.5685 22.5872 95.276 22.8445 94.9853 23.0169C94.6947 23.1893 94.3676 23.3336 94.1779 23.6183C93.8649 24.0882 94.049 24.7187 94.0491 25.2884C94.0465 25.6504 93.9651 26.0072 93.8107 26.3326C93.6564 26.658 93.4331 26.9436 93.1573 27.1684L94.2126 26.7245C93.7087 27.6319 93.3779 28.6299 93.238 29.665L94.6649 28.4522C94.1364 29.3176 93.8152 30.2997 93.7277 31.3178L94.873 30.1103C94.9252 30.2046 94.9513 30.3118 94.9486 30.4203L94.8292 30.8943C94.787 30.9883 94.7402 31.0801 94.6891 31.1693C94.5048 31.495 94.3142 31.8957 94.4866 32.2282L94.4874 32.2277C94.306 32.8558 94.0323 33.4843 93.4234 33.7897C94.0987 33.8624 94.8036 33.515 95.1086 32.962C95.1583 33.0615 95.2184 33.1551 95.2877 33.2413C95.3074 33.2666 95.3267 33.2916 95.3461 33.3167L95.1778 33.4322L94.7268 33.7415C94.7268 33.7415 91.7722 34.3572 91.9592 35.5116C91.9669 35.5591 91.9761 35.6157 91.9865 35.6793L91.1364 37.1661L89.9023 41.4758C89.9023 41.4758 89.2665 42.861 89.3787 43.4382C89.4909 44.0154 89.3787 44.2462 89.3787 45.2852C89.3787 46.3241 88.8925 46.7473 89.3787 47.5939C89.8649 48.4404 91.3234 50.903 91.3234 50.903L91.6438 51.1503C91.6282 51.2988 91.6337 51.4488 91.66 51.5957C91.9592 53.1348 94.7642 67.8722 94.7642 67.8722C94.7642 67.8722 93.343 79.5312 96.2227 80.2623C96.5839 80.354 96.9386 80.4372 97.2831 80.5113L97.7187 83.456L97.4569 87.1885C97.4569 87.1885 95.4747 91.8059 99.1024 92.0753C102.73 92.3446 101.085 88.0735 101.085 88.0735C101.276 87.7088 101.354 87.2925 101.309 86.8806C101.272 86.5381 100.961 84.7556 100.655 83.0413C102.032 82.8714 101.774 81.3681 101.591 80.7071C101.67 80.6595 101.73 80.5833 101.758 80.4932C101.799 80.3397 101.703 79.7359 101.528 78.8897C101.385 78.0485 101.141 76.6868 100.975 75.7643L101.87 75.9142L105.647 53.1348C105.647 53.1348 105.672 52.7722 105.661 52.2418C106.177 51.967 106.71 51.7255 107.255 51.5187C108.49 51.0185 108.976 49.1715 109.387 48.4019C109.799 47.6324 109.238 47.4015 108.976 46.7089ZM95.5643 32.2052C95.6865 32.1185 95.8298 32.0685 95.9781 32.0608C95.9461 32.2398 95.6469 32.2921 95.3961 32.3858C95.4421 32.3165 95.4989 32.2554 95.5643 32.2052ZM93.6796 43.6691C93.9826 44.1812 93.434 45.5691 92.9396 46.6705C92.6563 46.4193 92.3607 46.4985 92.7072 45.7854C92.9435 45.3335 93.0837 44.8351 93.1186 44.3232C93.1186 44.2352 93.1624 43.5888 93.5309 43.3202C93.5697 43.441 93.6195 43.5578 93.6796 43.6691ZM92.5445 48.0895C92.716 48.0177 92.9757 47.9074 93.3263 47.7847C93.1583 48.0115 92.9665 48.2818 92.7736 48.5769C92.7007 48.52 92.642 48.4462 92.6022 48.3615C92.5624 48.2768 92.5426 48.1836 92.5445 48.0895ZM104.675 48.5943C104.448 48.3458 104.264 48.1235 104.113 47.9245C104.395 48.0009 104.682 48.0831 104.974 48.1711C105.12 48.1934 105.268 48.1833 105.41 48.1412C105.423 48.4072 105.423 48.7867 105.423 48.7867L105.013 49.0785C104.92 48.9037 104.806 48.7411 104.675 48.5944V48.5943ZM105.836 47.2599C105.831 47.2638 105.826 47.2683 105.822 47.2724C105.802 47.1202 105.768 46.9703 105.722 46.8243C105.477 46.029 105.346 44.6179 105.276 43.4137L105.984 45.8624C105.984 45.8624 106.021 47.0937 105.836 47.2599Z" fill="#D0CDE1"/>
<path d="M91.3079 37.146C91.3079 37.146 87.471 30.361 87.3511 29.6208C87.2312 28.8806 85.3128 27.5236 85.3128 27.5236C84.6573 26.8492 83.5819 26.6358 82.4501 26.6469C82.8763 26.2841 81.3546 26.0403 81.2361 25.7965C81.1162 25.5498 80.7565 25.5498 80.2769 25.1797C79.7973 24.8096 78.6002 25.118 78.6 25.118C78.42 24.7284 78.2947 24.3144 78.2281 23.8885C78.739 23.2665 79.0189 22.4782 79.0179 21.6638C79.0179 21.6549 79.0173 21.6462 79.0172 21.6374C79.0478 21.6863 79.0783 21.7354 79.1088 21.7861C79.3334 20.4018 79.7299 19.2512 78.9742 17.9884C78.4386 17.0934 77.6001 16.4339 76.6202 16.1368L75.9004 16.7292L76.1802 16.0382C75.9449 16.0013 75.7068 15.9871 75.4689 15.9959L74.8213 16.8526L75.0893 16.0253C74.5274 16.0971 73.986 16.288 73.4994 16.5858C73.0127 16.8837 72.5913 17.282 72.2617 17.7558C71.4375 18.9785 71.4927 20.6782 72.3033 21.9105C72.3061 21.9019 72.3082 21.8934 72.3109 21.8848C72.3467 22.4613 72.5225 23.0194 72.8222 23.5079C73.1219 23.9964 73.5359 24.3997 74.0263 24.681L74.2299 26.357C74.0466 26.5321 73.8116 26.6388 73.5623 26.6601C73.2026 26.6601 72.8429 27.647 72.8429 27.647C72.8429 27.647 72.639 27.7528 72.4193 28.2525C71.8533 28.649 70.1267 29.8944 69.4861 30.7646C69.1072 30.9565 68.7001 31.3832 68.7662 32.3348C68.8861 34.0619 68.7662 42.0806 68.7662 42.0806C68.7662 42.0806 67.6871 48.8657 68.0468 49.3591C68.4065 49.8526 67.9269 51.4563 67.9269 51.4563L68.2866 51.5385V51.9498C68.2866 51.9498 67.2047 57.11 68.8861 56.8843C71.6439 56.5142 69.6055 52.3199 69.6055 52.3199V51.8401L70.0851 51.9498C70.0851 51.9498 70.3249 50.2227 70.8046 50.0993C70.9714 50.0564 71.1672 49.5953 71.3517 49.0124C71.4592 49.9217 71.524 50.4694 71.524 50.4694L72.2742 50.2979L72.4832 51.0862C72.5347 51.1159 72.5886 51.1411 72.6443 51.1613L72.4832 52.0731C72.4832 52.0731 72.3633 53.06 72.4832 53.6769C72.5437 53.9879 74.7694 60.6371 76.961 67.1523L76.9196 68.7273C76.9196 68.7273 75.8405 69.961 76.0803 70.8245C76.3201 71.6881 75.4808 78.8432 75.4808 78.8432L74.7614 82.4208L74.9424 82.4781L74.7762 83.1049C74.6331 83.1793 74.5058 83.2822 74.4016 83.4077C73.4424 84.518 72.2434 87.7254 72.2434 87.7254C72.2434 87.7254 70.0851 91.0563 73.4424 90.9329C76.7997 90.8095 77.0395 89.5759 77.0395 89.5759C77.0395 89.5759 77.5191 86.3684 77.5191 86.2451C77.5191 86.1217 77.2793 84.8536 77.2793 84.8536L77.1862 84.7479L77.2512 83.209L77.8788 83.4077C77.8788 83.4077 78.4783 80.2002 78.958 79.8301C79.1256 79.7008 79.5715 78.2599 80.0807 76.4093C80.6011 77.9511 81.1052 83.2822 81.2687 83.7662C81.2107 83.8476 81.1597 83.934 81.1162 84.0245C80.5772 85.0887 79.9766 86.1185 79.3177 87.1086C79.3177 87.1086 75.4808 89.4525 79.3177 90.0694C79.3177 90.0694 81.4759 90.1927 82.555 89.4525C83.6342 88.7123 86.5118 87.6021 86.5118 87.3553C86.5118 87.1086 85.7924 83.4817 85.073 83.8765L84.5911 82.7361L85.073 82.5441L82.0374 68.525C82.1092 68.2262 82.1619 67.9229 82.1953 67.617C82.1953 66.971 83.7479 54.3918 84.143 51.2012C85.8818 51.708 87.4711 48.0021 87.4711 48.0021L87.8652 47.2721L88.4303 47.632C88.4303 47.632 88.9099 46.3984 89.6293 46.275C90.3487 46.1516 91.6677 39.6133 91.6677 38.7498C91.6567 38.1954 91.5342 37.6493 91.3079 37.146ZM85.7214 46.8115C85.6034 46.6187 85.4665 46.4389 85.3128 46.275C85.6263 45.4349 85.867 44.568 86.0322 43.6843C86.272 42.3273 85.6725 37.8862 85.6725 37.8862L85.662 37.5846C86.2505 38.3794 86.9914 39.4391 86.9914 39.7367C86.9914 39.8803 87.0239 40.022 87.0864 40.1504C87.1488 40.2789 87.2395 40.3907 87.3511 40.4769L86.6317 43.0675C86.6317 43.0675 86.1521 44.3011 86.0322 44.918C85.9604 45.2837 85.9202 45.6552 85.9123 46.0282L86.0823 46.1365L85.7214 46.8115Z" fill="#D0CDE1"/>
<path d="M36.4158 39.4294L37.0556 39.2813L34.4178 31.6327L28.7224 29.4738C28.7224 29.4738 28.7006 29.4987 28.6603 29.5416C28.1745 29.0579 27.9683 28.356 27.8822 27.8035C28.3402 27.6131 28.7517 27.3211 29.0874 26.9482C29.4231 26.5754 29.6746 26.1309 29.8241 25.6465C29.9735 25.1621 30.0172 24.6497 29.952 24.1459C29.8868 23.6422 29.7144 23.1594 29.4469 22.7321C29.9162 22.6162 30.0838 22.1782 30.2413 21.6558C30.1438 21.6262 30.0443 21.6039 29.9437 21.5891C30.0175 21.4188 30.0913 21.2486 30.1651 21.0783C30.0354 21.0663 29.9057 21.0543 29.7759 21.0423C29.8091 20.8832 29.8423 20.724 29.8754 20.5648C29.71 20.6823 29.5446 20.7998 29.3792 20.9173C29.4354 20.7502 29.4493 20.5711 29.4198 20.3969C29.3902 20.2227 29.3181 20.0591 29.2102 19.9215C28.9906 19.6484 28.7041 19.4405 28.3803 19.3194C27.747 19.0631 27.0574 18.9912 26.3871 19.1118C25.7167 19.2323 25.0916 19.5406 24.5805 20.0027L24.5446 19.8589C23.5323 20.6595 22.8699 21.8405 22.7027 23.1429C22.5439 24.4303 23.145 25.7411 23.9263 26.7598C23.9197 26.7153 23.9127 26.671 23.9055 26.6267C23.9392 26.6746 23.9741 26.7215 24.0101 26.7675L24.1061 30.5224L23.8656 30.7345C23.8652 30.7347 19.8299 32.6131 19.6726 34.8566L19.6721 34.8583C19.4299 35.9505 19.31 41.6252 19.31 41.6252H19.6421L19.31 43.8458L17.1518 52.4813C17.1518 52.4813 14.394 56.1822 16.7921 56.9224C18.2822 57.3824 18.7074 55.6035 18.8158 54.1906C18.9021 54.5408 19.1604 54.7776 19.6697 54.8252C19.7098 54.829 19.7526 54.8321 19.794 54.8355C18.6601 57.8504 19.4299 67.6551 19.4299 67.6551C18.8304 68.8888 25.9047 77.4009 25.9047 77.4009L26.3306 77.1672L26.4228 77.3568C26.1858 77.3802 26.0246 77.4009 26.0246 77.4009V81.2252C26.0246 81.2252 24.9455 85.0495 26.3843 85.7897C26.7566 85.9812 27.1449 85.8419 27.5161 85.5308C27.4452 86.711 27.3435 88.4721 27.3435 88.8738C27.3435 89.4906 28.9023 90.6009 28.9023 90.6009C28.9023 90.6009 29.262 91.9579 32.1396 91.9579C35.0173 91.9579 32.8591 88.3803 32.8591 88.3803L31.3003 84.8028C31.3003 84.8028 31.1837 84.8615 30.8307 84.5658L30.9571 83.1352L31.66 83.199L32.6193 68.7654C32.6193 68.7654 33.4586 55.9355 33.5785 53.9617C33.6066 53.3288 33.5921 52.6948 33.5351 52.064L37.0557 44.586L36.4158 39.4294ZM33.8183 44.2159L33.4586 45.5056V42.6533L33.8183 44.2159ZM18.8492 53.3644C18.8522 52.9123 18.8304 52.6047 18.8304 52.6047L21.1745 47.7811L21.1086 49.2738C21.1086 49.2738 19.2312 51.7171 18.8492 53.3644ZM24.3459 67.285L26.6241 59.0196L27.943 69.0121L27.8485 72.6449C27.6878 72.3111 27.5589 71.9621 27.4634 71.6028C27.1037 70.1224 24.3459 67.285 24.3459 67.285Z" fill="#D0CDE1"/>
<path d="M56.7933 86.9192C55.6699 86.4433 53.4891 85.4233 53.2247 84.8794C52.9604 84.3355 51.6387 80.1199 51.6387 80.1199L51.2983 80.1454C51.2544 78.2303 51.067 70.8083 50.7796 69.921C50.7796 69.921 52.1673 58.1582 49.3918 53.4667L48.8917 51.388C49.0558 50.5547 49.0347 48.6251 48.9292 48.2993C48.797 47.8913 50.4491 46.5994 49.9865 45.7835C49.524 44.9676 48.2683 42.1799 48.2683 42.1799C48.2683 42.1799 48.4005 40.4121 46.6162 38.7803C46.6162 38.7803 46.0948 35.7431 43.7451 35.6978C43.4275 35.1275 42.9829 34.2206 43.1137 33.8168C43.2538 33.3844 43.7893 32.0366 44.0918 31.2822C44.2525 31.2075 44.4068 31.1191 44.5532 31.018C46.4219 30.1566 47.7392 28.0858 47.7392 25.6666C47.7392 23.077 46.2301 20.8854 44.1505 20.1505C44.2431 19.8993 44.281 19.6302 44.2615 19.3623C44.2419 19.0944 44.1654 18.8341 44.0374 18.6C43.9094 18.3658 43.7329 18.1634 43.5205 18.0071C43.3081 17.8508 43.065 17.7444 42.8082 17.6955C42.5515 17.6465 42.2874 17.6561 42.0347 17.7236C41.7819 17.7912 41.5467 17.915 41.3455 18.0863C41.1444 18.2577 40.9823 18.4724 40.8707 18.7153C40.7591 18.9582 40.7007 19.2233 40.6996 19.492C40.5852 19.2131 40.5398 18.9094 40.5673 18.608C40.5948 18.3066 40.6944 18.0169 40.8572 17.7648C41.02 17.5126 41.241 17.3059 41.5004 17.163C41.7598 17.0202 42.0495 16.9456 42.3437 16.946C42.4596 16.9462 42.5751 16.9579 42.6887 16.981C42.2969 16.7893 41.8506 16.7512 41.4335 16.8737C41.0163 16.9963 40.6569 17.2712 40.4226 17.6469C40.1884 18.0226 40.0953 18.4733 40.1608 18.9145C40.2264 19.3557 40.4461 19.7573 40.7787 20.0438C40.7993 20.1109 40.8236 20.1768 40.8515 20.241C38.8947 21.0535 37.4988 23.176 37.4988 25.6666C37.4988 27.9769 38.7002 29.9698 40.4359 30.8949C40.4267 31.6464 40.2455 32.9134 39.2382 33.6856C38.7178 33.4409 37.9957 33.1724 37.5323 33.2942C37.2927 33.102 36.9311 33.0386 36.4391 33.5448C35.4478 34.5647 34.5887 37.2164 34.5887 38.8482C34.5887 40.4801 34.787 49.9311 34.787 49.9311C34.787 49.9311 33.7296 50.339 34.4565 50.951C34.6067 51.0796 34.7951 51.1517 34.9904 51.1551L35.7122 56.6624C35.7122 56.6624 35.2496 61.9658 37.0339 62.0338C37.1738 62.0417 37.3128 62.0066 37.4333 61.9329L36.1087 68.0852C36.1087 68.0852 33.0688 70.125 30.6897 74.1365C29.4643 76.2028 28.8534 77.4739 28.5483 78.2222L28.1124 77.9442L26.5924 80.9358C26.5924 80.9358 23.2221 83.0436 23.949 84.6075C24.676 86.1713 25.3368 86.5793 25.3368 86.5793L25.7994 86.3753L26.6585 88.0071C26.6585 88.0071 28.9054 91.3387 32.5401 89.6389C32.7106 89.4031 32.8028 89.117 32.8028 88.823C32.8028 88.5291 32.7106 88.2429 32.5401 88.0071C31.9453 87.1232 30.4254 85.2194 30.4254 85.2194L31.4166 80.0519L31.2115 79.9211L37.4965 72.0968C37.4965 72.0968 39.3468 70.9409 40.0077 69.921C40.6686 68.9011 44.7658 58.3622 44.7658 58.3622L47.0788 69.377C47.0788 69.377 46.9466 73.3886 47.5414 75.9724C47.8656 77.4217 48.077 78.8953 48.1736 80.3792L48.004 80.3919L48.4005 83.4516C48.4005 83.4516 46.6823 87.8031 47.8718 88.1431C48.7181 88.368 49.5796 88.5271 50.4491 88.619L50.5813 88.1431C50.5813 88.1431 55.6699 90.9988 57.5202 88.891C57.5202 88.891 57.9168 87.3952 56.7933 86.9192ZM38.686 53.5347C38.8842 53.7387 38.8181 54.6906 38.8181 54.6906L38.4216 57.3423L38.0256 59.1816C37.9709 58.3126 37.8603 57.4483 37.6947 56.5944L37.5118 51.5127C37.5477 51.536 37.5872 51.553 37.6286 51.5629C37.7608 51.5629 37.6947 50.407 37.6947 50.407C37.6947 50.407 37.7718 50.2006 37.8681 49.8748C38.125 50.6661 38.4387 51.1825 38.8181 51.2909L38.8842 52.1748C38.8842 52.1748 38.0251 52.5828 38.8181 52.5828C38.8642 52.581 38.9098 52.5741 38.9543 52.562L38.8842 52.9228C38.8842 52.9228 38.4877 53.3307 38.686 53.5347Z" fill="#D0CDE1"/>
<path d="M55.6638 90.0866C85.0029 90.0866 108.787 89.6833 108.787 89.1857C108.787 88.6881 85.0029 88.2848 55.6638 88.2848C26.3248 88.2848 2.54077 88.6881 2.54077 89.1857C2.54077 89.6833 26.3248 90.0866 55.6638 90.0866Z" fill="#3F3D56"/>
<path d="M74.2566 93.8405C106.529 93.8405 132.692 92.7985 132.692 91.5131C132.692 90.2277 106.529 89.1857 74.2566 89.1857C41.9838 89.1857 15.8215 90.2277 15.8215 91.5131C15.8215 92.7985 41.9838 93.8405 74.2566 93.8405Z" fill="#3F3D56"/>
<path d="M63.4716 97.2941C79.3099 97.2941 92.1493 96.2521 92.1493 94.9667C92.1493 93.6813 79.3099 92.6393 63.4716 92.6393C47.6334 92.6393 34.7939 93.6813 34.7939 94.9667C34.7939 96.2521 47.6334 97.2941 63.4716 97.2941Z" fill="#3F3D56"/>
<path d="M104.919 98.9458C111.972 98.9458 117.689 98.408 117.689 97.7446C117.689 97.0812 111.972 96.5433 104.919 96.5433C97.8667 96.5433 92.1494 97.0812 92.1494 97.7446C92.1494 98.408 97.8667 98.9458 104.919 98.9458Z" fill="#3F3D56"/>
<path d="M87.4062 103C90.7512 103 93.4628 102.462 93.4628 101.799C93.4628 101.135 90.7512 100.598 87.4062 100.598C84.0612 100.598 81.3496 101.135 81.3496 101.799C81.3496 102.462 84.0612 103 87.4062 103Z" fill="#3F3D56"/>
<path d="M38.0777 97.8947C41.4227 97.8947 44.1343 97.3569 44.1343 96.6935C44.1343 96.0301 41.4227 95.4922 38.0777 95.4922C34.7328 95.4922 32.0211 96.0301 32.0211 96.6935C32.0211 97.3569 34.7328 97.8947 38.0777 97.8947Z" fill="#3F3D56"/>
<path d="M67.9958 83.1043L68.5796 87.3087L71.4985 87.0084L71.2066 82.6539L67.9958 83.1043Z" fill="#FFB8B8"/>
<path d="M54.1314 83.1043L53.5476 87.3087L50.6288 87.0084L50.9207 82.6539L54.1314 83.1043Z" fill="#FFB8B8"/>
<path d="M49.8991 39.5593C49.8991 39.5593 47.2721 42.7126 47.8559 47.6677C48.4397 52.6228 49.4613 63.8845 49.4613 63.8845L50.191 83.8552L54.8611 83.5549L55.5908 66.5873L57.9259 52.9231L64.2014 68.8396C64.2014 68.8396 67.2662 83.705 67.4122 83.705C67.5581 83.705 71.7905 83.2546 71.7905 83.2546L69.7473 65.6864C69.7473 65.6864 66.5365 40.1599 64.6393 39.7095C62.742 39.259 49.8991 39.5593 49.8991 39.5593Z" fill="#2F2E41"/>
<path d="M71.7904 86.4078C71.7904 86.4078 69.1634 84.606 68.1418 86.7081C67.1202 88.8103 67.9959 90.3119 67.9959 90.3119C67.9959 90.3119 68.8716 90.9125 68.4337 91.5131C67.9959 92.1138 67.85 96.0178 71.6445 95.4172C75.439 94.8166 73.5417 90.7624 73.5417 90.7624L71.7904 86.4078Z" fill="#2F2E41"/>
<path d="M50.3368 86.4078C50.3368 86.4078 52.9638 84.606 53.9854 86.7081C55.007 88.8103 54.1313 90.3119 54.1313 90.3119C54.1313 90.3119 53.2557 90.9125 53.6935 91.5131C54.1313 92.1138 54.2773 96.0178 50.4828 95.4172C46.6883 94.8166 48.5855 90.7624 48.5855 90.7624L50.3368 86.4078Z" fill="#2F2E41"/>
<path d="M53.4746 10.354C53.4746 10.354 54.7881 14.1079 53.7665 16.2101C52.7449 18.3123 55.3719 20.7148 55.3719 20.7148C55.3719 20.7148 62.2311 17.1111 61.3555 15.3092C60.4798 13.5073 59.0204 11.1048 59.3123 9.60327L53.4746 10.354Z" fill="#FFB8B8"/>
<path d="M56.0287 11.7805C58.6079 11.7805 60.6988 9.62922 60.6988 6.97551C60.6988 4.32179 58.6079 2.17053 56.0287 2.17053C53.4494 2.17053 51.3585 4.32179 51.3585 6.97551C51.3585 9.62922 53.4494 11.7805 56.0287 11.7805Z" fill="#FFB8B8"/>
<path d="M52.672 15.9849C52.672 15.9849 57.3579 19.9968 60.8526 14.312L64.4933 16.4353L66.3906 39.259C66.3906 39.259 55.7368 45.5655 50.6288 40.1599L51.3585 18.988L52.672 15.9849Z" fill="#D0CDE1"/>
<path d="M54.1435 13.7374L47.5639 18.2371L49.899 29.3486L46.8342 46.6165L51.7963 38.9586L54.1435 13.7374Z" fill="#575A89"/>
<path d="M59.9585 12.485L61.5745 13.5824L68.1419 15.9849L67.1203 34.6042L69.8932 46.6166L65.9527 48.7188C65.9527 48.7188 65.223 43.0129 60.6988 40.1599C56.1746 37.307 58.9263 13.3396 59.9585 12.485Z" fill="#575A89"/>
<path d="M49.0234 41.6614L50.9207 43.0128C50.9207 43.0128 48.5126 45.6406 48.0748 45.1901C47.9481 45.0649 47.8497 44.9126 47.7866 44.7439C47.7236 44.5752 47.6974 44.3943 47.7099 44.2141L47.2721 43.163L49.0234 41.6614Z" fill="#FFB8B8"/>
<path d="M61.6356 41.3693L60.9906 42.4122C60.9906 42.4122 59.0933 43.3132 59.5312 43.9138C59.969 44.5144 63.6176 45.8658 64.3473 44.5144L65.077 43.163L61.6356 41.3693Z" fill="#FFB8B8"/>
<path d="M48.4396 18.087L47.418 18.2372L45.7397 29.4238C45.7397 29.4238 45.0829 31.4509 45.8126 36.2559C46.5424 41.0608 47.265 44.1897 47.265 44.1897L50.4828 41.8116L49.0234 37.9076L50.9206 23.6428L48.4396 18.087Z" fill="#575A89"/>
<path d="M65.8068 15.6846L68.1418 15.9849C68.1418 15.9849 70.7688 18.8378 71.2066 21.8409C71.6445 24.8441 71.4985 33.4029 71.4985 33.4029L64.7852 44.3643L61.1366 41.6615L66.2446 32.3518L63.7636 21.2403L65.8068 15.6846Z" fill="#575A89"/>
<path d="M60.4821 2.62968C59.7759 1.44977 58.6705 0.580303 57.3786 0.188624L56.4297 0.969628L56.7986 0.0586742C56.4884 0.00998123 56.1744 -0.00868951 55.8608 0.00290657L55.0071 1.13226L55.3604 0.041591C54.6196 0.136311 53.9059 0.38793 53.2643 0.780583C52.6227 1.17324 52.0672 1.6984 51.6327 2.32297C50.5461 3.93498 50.3627 6.17676 51.4314 7.80138C51.7248 6.87378 52.0809 6.00338 52.3743 5.07577C52.6048 5.10811 52.8385 5.10928 53.0694 5.07925L53.4263 4.22237L53.526 5.04301C54.6323 4.94383 56.2733 4.72612 57.3221 4.52664L57.2201 3.8971L57.8303 4.42025C58.1516 4.34413 58.3424 4.27512 58.3266 4.22237C59.1066 5.51617 59.8795 6.34255 60.6595 7.63634C60.9556 5.8114 61.4783 4.29445 60.4821 2.62968Z" fill="#2F2E41"/>
<path d="M60.2235 7.47511C60.3981 7.47511 60.5396 7.18385 60.5396 6.82456C60.5396 6.46527 60.3981 6.17401 60.2235 6.17401C60.0489 6.17401 59.9073 6.46527 59.9073 6.82456C59.9073 7.18385 60.0489 7.47511 60.2235 7.47511Z" fill="#FFB8B8"/>
<path d="M110.738 91.7504C110.872 96.4891 108.181 98.2257 104.804 98.3271C104.726 98.3295 104.647 98.331 104.57 98.3315C104.413 98.3327 104.258 98.33 104.104 98.3234C101.05 98.193 98.6323 96.5248 98.5073 92.1179C98.3778 87.5573 103.88 81.6316 104.292 81.1933L104.293 81.1929C104.309 81.1762 104.317 81.1678 104.317 81.1678C104.317 81.1678 110.603 87.0122 110.738 91.7504Z" fill="#10A37F"/>
<path d="M104.561 97.609L106.706 94.3266L104.565 97.9621L104.57 98.3315C104.413 98.3327 104.258 98.33 104.104 98.3234L104.211 93.5756L104.208 93.539L104.212 93.5319L104.222 93.0833L101.873 89.5738L104.219 92.7475L104.228 92.8423L104.308 89.2551L102.279 85.6166L104.314 88.625L104.292 81.1933L104.292 81.1686L104.293 81.1929L104.428 87.0501L106.277 84.6709L104.434 87.5547L104.474 90.7633L106.176 87.6318L104.481 91.235L104.503 93.0192L106.978 88.657L104.511 93.6416L104.561 97.609Z" fill="#3F3D56"/>
<path d="M32.5126 84.6931C32.6471 89.4317 29.956 91.1683 26.5788 91.2698C26.5003 91.2722 26.4222 91.2736 26.3445 91.2742C26.1879 91.2754 26.0328 91.2727 25.8792 91.2661C22.8248 91.1356 20.4071 89.4675 20.282 85.0606C20.1526 80.5 25.6545 74.5743 26.0673 74.136L26.068 74.1356C26.0837 74.1189 26.0917 74.1105 26.0917 74.1105C26.0917 74.1105 32.3781 79.9548 32.5126 84.6931Z" fill="#10A37F"/>
<path d="M26.3357 90.5516L28.481 87.2692L26.3401 90.9048L26.3445 91.2741C26.1879 91.2753 26.0328 91.2726 25.8793 91.2661L25.9857 86.5182L25.9827 86.4816L25.9867 86.4745L25.9968 86.0259L23.6475 82.5164L25.9941 85.6901L26.0024 85.7849L26.0828 82.1978L24.0535 78.5592L26.0886 81.5676L26.0673 74.1359L26.0674 74.1112L26.068 74.1355L26.2028 79.9927L28.0522 77.6135L26.2088 80.4973L26.2492 83.7059L27.951 80.5744L26.2554 84.1776L26.2779 85.9618L28.7528 81.5996L26.2854 86.5842L26.3357 90.5516Z" fill="#3F3D56"/>
<path d="M90.9651 98.4309C91.0441 101.212 89.4645 102.232 87.4821 102.291C87.4361 102.293 87.3902 102.293 87.3446 102.294C87.2527 102.295 87.1616 102.293 87.0715 102.289C85.2787 102.212 83.8595 101.233 83.7861 98.6466C83.7101 95.9696 86.9396 92.4914 87.1819 92.2341L87.1823 92.2339C87.1915 92.2241 87.1963 92.2192 87.1963 92.2192C87.1963 92.2192 90.8862 95.6496 90.9651 98.4309Z" fill="#10A37F"/>
<path d="M87.3394 101.87L88.5986 99.943L87.342 102.077L87.3446 102.294C87.2527 102.295 87.1616 102.293 87.0715 102.289L87.1339 99.5022L87.1322 99.4807L87.1345 99.4766L87.1405 99.2132L85.7615 97.1532L87.1389 99.0161L87.1438 99.0718L87.191 96.9662L85.9998 94.8305L87.1943 96.5963L87.1819 92.2341L87.1819 92.2196L87.1823 92.2339L87.2614 95.6719L88.3469 94.2754L87.2649 95.9681L87.2886 97.8515L88.2876 96.0133L87.2923 98.1284L87.3055 99.1756L88.7582 96.6151L87.3099 99.5409L87.3394 101.87Z" fill="#3F3D56"/>
<path d="M139.987 7.68659C139.991 7.6727 139.996 7.65864 140 7.64471C139.998 7.65082 139.996 7.65669 139.994 7.66282L139.987 7.68659Z" fill="#2F2E41"/>
<path d="M119.593 87.3617L130.402 70.8227L119.615 89.141L119.637 91.0021C118.848 91.0083 118.067 90.9948 117.293 90.9615L117.829 67.0388L117.814 66.8542L117.834 66.8186L117.886 64.558L106.048 46.8747L117.872 62.8661L117.914 63.3439L118.319 45.2694L108.094 26.9358L118.348 42.0942L118.241 4.64837L118.241 4.52374L118.244 4.64631L118.923 34.1587L128.242 22.1707L118.954 36.7011L119.157 52.8684L127.732 37.0897L119.188 55.2452L119.302 64.235L131.772 42.2556L119.34 67.3712L119.593 87.3617Z" fill="#3F3D56"/>
<path d="M9.21703 86.7206L16.5727 75.4663L9.23207 87.9314L9.24742 89.1978C8.71043 89.202 8.17865 89.1928 7.65209 89.1702L8.01692 72.8915L8.00693 72.7659L8.02039 72.7416L8.05531 71.2034L0 59.1704L8.04581 70.0521L8.07436 70.3772L8.34992 58.078L1.3923 45.6025L8.36973 55.9174L8.29691 30.4366L8.29706 30.3517L8.29943 30.4351L8.76129 50.5175L15.1023 42.36L8.78205 52.2475L8.92045 63.2489L14.7555 52.512L8.94189 64.8663L9.01893 70.9836L17.5047 56.0272L9.04472 73.1177L9.21703 86.7206Z" fill="#3F3D56"/>
</g>
<defs>
<clipPath id="clip0_27_495">
<rect width="140" height="103" fill="white"/>
</clipPath>
</defs>
</svg>
