<svg xmlns="http://www.w3.org/2000/svg" focusable="false" fill="none" viewBox="0 0 43 42"><g filter="url(#a)"><circle cx="19.5" cy="15.5" r="15" fill="#fff" stroke="#E6E6E6"/><path fill="#E6E6E6" d="M26.508 27.095a.91.91 0 0 1-1.29-.204.957.957 0 0 1 .206-1.311c2.107-1.625 3.347-3.105 3.983-3.991.226-.316.594-.505.982-.477.791.057 1.224.929.731 1.55-.95 1.201-2.425 2.77-4.612 4.433Z"/><path fill="#10A37F" d="M12.657 3.388a.91.91 0 0 1 1.286.232.957.957 0 0 1-.234 1.306C11.567 6.505 10.295 7.958 9.64 8.83c-.233.31-.605.492-.992.456-.79-.075-1.203-.955-.698-1.566.977-1.18 2.484-2.717 4.707-4.332ZM33.086 34c2.809 0 5.086-2.239 5.086-5s-2.277-5-5.086-5S28 26.239 28 29s2.277 5 5.086 5Z"/><path fill="#fff" d="M35.518 28.348H33.75v-1.74a.646.646 0 0 0-.194-.46.67.67 0 0 0-.938 0 .646.646 0 0 0-.194.46v1.74h-1.77a.67.67 0 0 0-.469.19.647.647 0 0 0 0 .923.67.67 0 0 0 .47.191h1.768v1.74c0 .172.07.338.195.46a.67.67 0 0 0 .938 0 .647.647 0 0 0 .194-.46v-1.74h1.77a.67.67 0 0 0 .468-.19.647.647 0 0 0 0-.923.67.67 0 0 0-.469-.191Z"/></g><defs><filter id="a" width="42.172" height="42" x="0" y="0" color-interpolation-filters="sRGB" filterUnits="userSpaceOnUse"><feFlood flood-opacity="0" result="BackgroundImageFix"/><feColorMatrix in="SourceAlpha" result="hardAlpha" values="0 0 0 0 0 0 0 0 0 0 0 0 0 0 0 0 0 0 127 0"/><feOffset dy="4"/><feGaussianBlur stdDeviation="2"/><feComposite in2="hardAlpha" operator="out"/><feColorMatrix values="0 0 0 0 0 0 0 0 0 0 0 0 0 0 0 0 0 0 0.05 0"/><feBlend in2="BackgroundImageFix" result="effect1_dropShadow_89_79"/><feBlend in="SourceGraphic" in2="effect1_dropShadow_89_79" result="shape"/></filter></defs></svg>