<svg width="20" height="20" focusable="false" viewBox="0 0 24 24" xmlns="http://www.w3.org/2000/svg"><path d="M12 16.5a.75.75 0 0 1 .743.648l.007.102v2.188l.72-.718a.75.75 0 0 1 .976-.073l.084.073a.75.75 0 0 1 .073.976l-.073.084-2 2-.038.036-.072.056-.095.054-.086.035-.103.027-.085.01h-.103l-.12-.018-.067-.019-.06-.023-.07-.035-.051-.032-.032-.022a.754.754 0 0 1-.078-.069l-2-2a.75.75 0 0 1 .976-1.133l.084.073.72.719V17.25a.75.75 0 0 1 .648-.743L12 16.5ZM12 9a3 3 0 1 1 0 6 3 3 0 0 1 0-6Zm6.72.47a.75.75 0 0 1 .976-.073l.084.073 2 2 .036.038.056.072.054.095.035.086.027.103.01.085v.102l-.018.12-.019.068-.023.06-.035.07-.032.051-.027.038-.064.072-2 2a.75.75 0 0 1-1.133-.976l.073-.084.718-.72H17.25a.75.75 0 0 1-.743-.648L16.5 12a.75.75 0 0 1 .648-.743l.102-.007h2.189l-.72-.72a.75.75 0 0 1-.072-.976l.073-.084Zm-14.5 0a.75.75 0 0 1 1.133.976l-.073.084-.72.72h2.19a.75.75 0 0 1 .743.648L7.5 12a.75.75 0 0 1-.648.743l-.102.007H4.561l.72.72a.75.75 0 0 1 .072.976l-.073.084a.75.75 0 0 1-.976.073l-.084-.073-2-2-.092-.11-.054-.095-.035-.086-.027-.103-.01-.09v-.093l.018-.124.019-.068.023-.06.035-.07.032-.051.022-.032a.754.754 0 0 1 .069-.078l2-2ZM12 10.5a1.5 1.5 0 1 0 0 3 1.5 1.5 0 0 0 0-3Zm-.136-8.488.067-.009.086-.003.06.004.094.016.068.019.06.023.07.035.051.032.038.027.072.064 2 2a.75.75 0 0 1-.976 1.133l-.084-.073-.72-.719V6.75a.75.75 0 0 1-.648.743L12 7.5a.75.75 0 0 1-.743-.648l-.007-.102V4.56l-.72.72a.75.75 0 0 1-.976.073L9.47 5.28a.75.75 0 0 1-.073-.976l.073-.084 2-2 .11-.092.095-.054.086-.035.103-.027Z" fill-rule="nonzero"/></svg>