<svg xmlns="http://www.w3.org/2000/svg" focusable="false" fill="none" viewBox="0 0 35 6"><path fill="#fff" d="M0 6V4.8h.367c1.247 0 3.27-.364 4.477-1.71l.189-.21.021-.024C5.782 2.043 6.417 1.333 7.19.831 7.91.362 8.733.083 9.844.016V0h14.948c1.362 0 2.321.275 3.144.794.798.505 1.446 1.229 2.191 2.061l.023.025c.061.07.124.14.188.21 1.207 1.346 3.23 1.71 4.477 1.71H35V6H0Z"/><path fill="#e5e7eb" d="M0 4.747v.396h.367c1.276 0 3.425-.363 4.737-1.809l.19-.208C6.782 1.479 7.717.445 10.207.397V.396h14.584c2.627 0 3.572 1.044 5.097 2.73l.008.009.181.2c1.312 1.445 3.461 1.807 4.737 1.808H35v-.396h-.185c-1.246 0-3.27-.36-4.477-1.69l-.189-.208-.022-.025c-.745-.823-1.393-1.54-2.191-2.038C27.113.272 26.154 0 24.792 0H9.844v.016C8.733.082 7.91.358 7.19.822c-.773.496-1.408 1.198-2.136 2.003l-.021.024-.189.208c-1.206 1.33-3.23 1.69-4.477 1.69H0Z"/></svg>