<svg xmlns="http://www.w3.org/2000/svg" xml:space="preserve" height="20" width="20" viewBox="0 0 52 52"><path d="M26 0C11.663 0 0 11.663 0 26s11.663 26 26 26 26-11.663 26-26S40.337 0 26 0zm2 41a2 2 0 0 1-4 0v-2a2 2 0 0 1 4 0v2zm2.874-16.433C29.102 25.711 28 27.853 28 30.158V33a2 2 0 0 1-4 0v-2.842c0-3.706 1.76-7.053 4.706-8.952a4.98 4.98 0 0 0 2.293-4.277c-.036-2.635-2.293-4.892-4.928-4.928-1.366-.067-2.622.492-3.582 1.438A4.968 4.968 0 0 0 21 17a2 2 0 0 1-4 0c0-2.428.952-4.703 2.681-6.408A8.933 8.933 0 0 1 25.998 8l.13.001c4.824.067 8.804 4.047 8.871 8.871a8.955 8.955 0 0 1-4.125 7.695z"/></svg>