<svg focusable="false" xmlns="http://www.w3.org/2000/svg" xml:space="preserve" viewBox="0 0 512 512"><g fill="#999"><path d="M256.04 0H235.688l-.8.064H233.992c-5.936.536-11.8 1.24-17.6 2.128L218.864 18a242.653 242.653 0 0 1 37.176-2V0zm-78.72 12.328a254.342 254.342 0 0 0-36.944 15.2l7.2 14.272A239.487 239.487 0 0 1 182.2 27.528l-4.912-15.2h.032zm-71.056 36a256.923 256.923 0 0 0-30.472 25.888l11.264 11.36a242.134 242.134 0 0 1 28.576-24.24l-9.368-12.968v-.04zM49.68 104.472a341.771 341.771 0 0 0-6.28 8.92l-.256.384-.168.256-.088.128-.168.248-.08.12-.08.12-.08.12-.16.24-.08.12-.08.12-.08.12-.08.12-.072.112-.072.112-.072.112-.08.12-.072.112-.072.104-.072.112-.072.112-.072.104-.072.112-.064.104-.072.112-.072.112-.064.096-.072.112-.072.112-.072.104-.072.112-.064.104-.072.112-.072.112-.056.096-.064.104-.056.088-.056.096v.04l-.064.104-.056.088-.064.104-.064.096-.056.088-.064.104-.056.08-.064.096v.04l-.064.104-.048.08-.064.104-.056.088v.048l-.048.08v.04l-.064.104v.04l-.048.072v.048l-.056.088v.048l-.896 1.16v.04l-.048.072v.04l-.064.104v.048l-.048.072v.064l-.048.08v.048l-.064.096v.04l-.048.08-.064.104v.048l-.056.088v.048l-.048.08v.04l-.064.096v.04l-.048.08v.048l-.056.088v.048l-.064.096v.048l-.048.072v.04l-.064.096v.048l-.056.096-.056.088v.04l-.064.104v.04l-.048.08v.056l-.056.088v.048l-.064.104v.04l-.04.072v.048l-.056.096v.048l-.048.08v.056l-.048.08v.048l-.064.104v.04l-.048.072v.048l-.056.096v.048l-.048.08v.064l-.04.072v.048l-.056.096v.184l-.048.08v.048l-.056.104v.04l-.048.072v.04l-.064.104v.04l-.056.088v.056l-.048.08v.048l-.056.096v.048l-.04.072v.056l-.056.088v.048l-.056.104v.048l-.04.072v.048l-.056.096V127l-.048.08v.056l-.048.08v.048l-.056.096v.048l-.04.072v.048l-.056.096v.048l-.056.088v.048l-.048.08v.04l-.056.104v.04l-.048.088v.048l-.056.088v.048l-.056.104v.04l-.048.08-.056.104v.04l-.056.096-.048.088v.048l-.056.104v.04l-.048.088v.04l-.056.096v.048l-.056.104v.04l-.04.08v.04l-.056.104v.04l-.056.096v.04l-.048.088v.048l-.056.104v.04l-.048.08-.056.104v.04l-.056.104v.04l-.048.08v.04l-.056.104-.056.096-.056.104-.064.112-.048.096-.064.112-.056.104-.048.096-2.192.504-.056.096-.064.112-.064.112-.056.104-.064.12-.064.112-.056.104-.064.112-.064.112-.064.12-.064.12-.056.112-.064.12-.136.248-.064.12-.064.12-.064.128-.136.256-.064.128-.064.128-.072.128-.072.128-.072.128-.064.128-.136.256-.064.128-.064.128-.072.128-.072.128-.072.128-.072.136-.144.264-.072.136-.072.136-.072.136-.144.272-.072.136-.144.272-.144.272 14.208 7.36a240.101 240.101 0 0 1 19.776-31.816l-13.256-8.824zM13.048 175.2a245.393 245.393 0 0 0-3.624 11.872l-.08.296-.08.296-.12.448-.08.296-.08.288V189.128l-.072.28V198.624l-2.472.32V199.632l-.256.368v.8l-.056.256V208.008l-.056.296c-.336 1.8-.656 3.616-.96 5.432l15.784 2.608a239.557 239.557 0 0 1 8.976-36.352l-15.2-5.048-1.624.256zM.04 253.824V286.592c.28 2.328.584 4.64.928 6.944L16.8 291.2a242.745 242.745 0 0 1-.76-35.2v-2.04l-16-.136zm26.928 74.04-15.264 4.8c.632 2 1.28 3.992 1.952 5.976l.408 1.184c.344.984.688 1.968 1.04 2.952 3.312 9.2 7.152 18.2 11.504 26.952l14.328-7.12a237.652 237.652 0 0 1-13.968-34.744zm33.208 66.888L47.144 404a257.117 257.117 0 0 0 25.48 30.576l.104.112 11.456-11.2a241.465 241.465 0 0 1-24-28.8l-.008.064zm52.168 53.504-9.6 12.8a256.845 256.845 0 0 0 25.176 16.632l.416.24.24.136.144.08.232.136.144.08.08.048.128.072.12.072h.072l.12.064h.128l.096.056h.048l.104.056H130.16l.096.056h.112l.096.056h.12l.08.04h.12l.096.056H131.048l.104.056h.048l.08.048h.064l.072.04h.048l.104.056h.048l.08.04h.056l.088.048h.056l.096.056h.04l.08.048.104.056.104.056.096.056.112.064.096.056.112.064.112.064.104.056.12.064.12.064.128.072.128.072.128.072.128.072.128.072.128.072.128.072.264.144.136.072.136.072.136.072.264.144.136.072.272.144.408.216 8.2-13.064a240.441 240.441 0 0 1-31.648-20.048h-.048zm66.032 34.944-5.176 15.144a254.733 254.733 0 0 0 30.504 8.344l.304.064.304.064h.152l.288.056.28.056H208.928l.272.048.288.056h.192l.296.056 1.784.312 2.736-15.76a238.856 238.856 0 0 1-36.12-8.44zm111.008 10.544A243.38 243.38 0 0 1 256.04 496h-4.08l-.264 16H279.504l.8-.08c3.768-.36 7.504-.792 11.2-1.312l-2.2-15.848.08-1.016zM360.84 472a238.663 238.663 0 0 1-34.856 13.672l4.656 15.312c12.76-3.88 25.2-8.76 37.2-14.592l-7-14.392zm61.288-42.72a241.955 241.955 0 0 1-28.984 23.76l9.152 13.128.072-.048h.04l.096-.064h.048l.072-.056h.056l.072-.048h.048l.096-.064h.04l.064-.048.064-.04.072-.048h.056l.064-.048.08-.056H403.44l.088-.064h.056l.056-.04.08-.056h.048l.064-.04.08-.056.056-.04h.048l.088-.064h.056l.056-.04h.048l.096-.072.112-.08.064-.048.112-.08.064-.048.144-.104.128-.088.072-.056.136-.096.216-.16.128-.096.224-.16.68-.96.232-.168.152-.112.232-.168a258.105 258.105 0 0 0 9.672-7.432l.368-.296.592-.48.584-.48.36-.296.216-.176.12-.096.216-.176.136-.112.072-.056.128-.112.136-.112.072-.056.128-.104.208-.176.12-.104.208-.176.128-.104.064-.056.112-.096.2-.168.096-.08.064-.048.104-.088.48-.472.064-.056.096-.088.192-.168.096-.08.056-.048.056-.048.08-.064h.04l.088-.072.048-.04.056-.048.048-.04.08-.072h.048l.048-.048.08-.064.056-.048.048-.04.072-.064.056-.048.048-.04.08-.064.048-.04.056-.048.056-.048.072-.064h.048l.064-.056.064-.056.056-.048h.048l.08-.072.048-.048.224-.312.064-.056.064-.056.048-.04.08-.072h.048l.056-.048.056-.048.072-.064h.04l.072-.064.056-.048.064-.056h.04l.08-.072.048-.04.056-.048.056-.048.064-.056h.04l.088-.072.112-.28h.04l.08-.072h.04l.08-.072.064-.056.088-.072h.04l.072-.064h.04l.072-.064.088-.08.072-.064.088-.08.088-.08.072-.064.088-.08.08-.072.088-.08.096-.08.08-.072.096-.088.096-.088.08-.072.096-.08.088-.08.088-.08.696-.76.096-.088.104-.088.096-.088.088-.08.096-.088.096-.088.096-.088.096-.088.088-.08.096-.088.096-.088.088-.08.096-.088.096-.088.088-.088.096-.088.096-.088.104-.096.104-.096.096-.088.096-.096.104-.096.096-.088.096-.088.096-.088.104-.096.096-.096.088-.088.096-.088.096-.096.096-.096.104-.096.104-.096.104-.096.712-.648.096-.096.104-.096.208-.192.104-.096.104-.096.104-.096.096-.096.088-.088.096-.096-11.064-11.552.152-.112zm45.272-59.432a241.05 241.05 0 0 1-20.312 31.48l12.728 9.696a231.16 231.16 0 0 0 8.28-11.52l.264-.384.168-.248.08-.12.08-.12.08-.12.08-.112.072-.104.072-.112.072-.104.072-.104.072-.104.056-.088.064-.096v-.048l.056-.088v-.048l.048-.072v-.048l.064-.096v-.048l.04-.064.048-.08v-.112l.048-.072.048-.072v-.056l.056-.088v-.056l.04-.064v-.04l.072-.104.144-.216.08-.128.152-.232.152-.24a254 254 0 0 0 10.592-17.84l-14.08-7.6.512-.328zm24.744-70.4a238.583 238.583 0 0 1-9.6 36.192l15.096 5.304c.664-1.88 1.304-3.768 1.92-5.672l.088-.272.088-.272.056-.184v-.088l.048-.152.08-.256.04-.136V329.968l.04-.136v-.128l.04-.136.08-.272.08-.28.04-.144.04-.144 1.488-.728.08-.288.128-.44.088-.296.088-.296a255.377 255.377 0 0 0 3.536-13.776l.072-.304.064-.296V311.872l.064-.288V307.584l.056-.264.056-.28v-.184c.304-1.504.592-3.024.872-4.544l-15.736-2.872 1.008.008zm17.752-76.8-15.864 2.064a243.524 243.524 0 0 1 1.928 37.4l16 .4V245.88a256.607 256.607 0 0 0-1.96-23.296l-.104.064zm-22.528-76.416-14.448 6.872A238.758 238.758 0 0 1 486.28 188l15.344-4.52a254.23 254.23 0 0 0-14.272-37.32l.016.072zm-45-65.752-11.64 10.976a241.652 241.652 0 0 1 23.512 29.184l13.2-9.04c-1.064-1.6-2.16-3.16-3.28-4.68l-.28-.392-.16-.224-.112-.152-.056-.08-.104-.144-.208-.328-.088-.12-.152-.208-.072-.096v-.04l-.04-.064v-.048l-.064-.088V104.832l-.064-.088v-.112l-.056-.08v-.056l-.04-.056-.064-.088v-.048l-.048-.056-.04-.056-.056-.08v-.04l-.064-.08v-.056l-.048-.064v-.04l-.064-.088v-.048l-.056-.072-.04-.056-.056-.072v-.04l-.072-.096-.064-.08-.072-.104-.072-.096-.064-.088-.08-.104-.08-.112-.784-.376-.08-.104-.072-.104-.088-.112-.08-.112-.08-.104-.088-.112-.176-.232-.136-.24-.176-.232-.088-.12-.096-.12-.088-.12-.184-.24-.288-.368-.288-.368-.192-.248a233.397 233.397 0 0 0-8.296-10.168l-.2-.232-.264-.264-.096-.112-.192-.224-.096-.112-.096-.112-.096-.104-.088-.104-.08-.096-.088-.096-.208-.24-.08-.096-.08-.096-.072-.08-.08-.096-.08-.088-.064-.072-.08-.088-.264-.304v-.048l-.064-.072v-.04l-.072-.088v-.04l-.048-.056-.048-.056-.056-.064-.04-.048-.064-.064-.056-.064-.04-.048-.064-.08-.048-.056-.048-.056v-.04l-.08-.088-.232-.072-.096-.112-.096-.112-.056-.064-.12-.136-.184-.208-.128-.136a251.661 251.661 0 0 0-3.96-4.296l-.072-.056zm-62.976-48.8-7.736 13.92a241.352 241.352 0 0 1 31.304 20.584l9.808-12.584-.104-.08-.208-.16-.112-.088-.064-.048-.112-.088-.128-.096-.296-.24-.12-.088-.216-.16-.168-.184-.224-.168-.272-.2-.144-.112-.224-.168-.376-.288a244.501 244.501 0 0 0-7.944-5.752l-.416-.272-1.032-.712-.24-.16-.16-.104-.232-.16-.152-.104-.08-.056-.16-.112-.224-.152-.12-.08-.072-.048-.136-.088-.144-.096-.072-.048-.128-.088-.224-.152-.128-.088-.072-.048-.12-.08-.112-.08-.392-.248-.128-.08-.216-.144-.12-.08-.072-.048-.264-.168-.128-.088-.064-.04-.112-.072-.064-.04h-.048l-.096-.064h-.04l-.248-.216H396l-.024-.064h-.048l-.096-.064h-.048l-.08-.056-.064-.04h-.112l-.096-.064H395.328l-.088-.256h-.112l-.072-.048-.072-.048h-.112l-.08-.056h-.112l-.088-.056h-.112l-.088-.056h-.12l-.08-.056h-.056l-.064-.04h-.048l-.096-.064h-.048l-.072-.048-.064-.04-.104-.504h-.048l-.064-.104h-.048l-.064-.04-.064-.04-.08-.048h-.048l-.088-.056h-.056l-.072-.048h-.048l-.12-.168h-.048l-.08-.048h-.056l-.08-.048h-.048l-.096-.064h-.048l-.064-.04-.032-.2h-.12l-.128-.104h-.048l-.072-.048h-.048l-.096-.064h-.048l-.08-.048h-.048l-.08-.048h-.048l-.104-.064-.08-.048-.096-.064h-.04l-.144-.312-.088-.056-.104-.064h-.04l-.08-.048h-.048l-.088-.056h-.04l-.104-.064-.08-.048h-.04l-.104-.064-.104-.064-.088-.056-.32-.28-.088-.056-.112-.064-.104-.064-.088-.056-.104-.064-.344-.184-.104-.064-.112-.064-.096-.056-.176-.128-.112-.064-.088-.056-.104-.064-.104-.064-.104-.064-.112-.064-.096-.056-.392-.216-.112-.064-.112-.088-.104-.064-.096-.056-.104-.064-.272-.152-.104-.064-.112-.064-.112-.064-.096-.056-.112-.064-.264-.152-.112-.064-.112-.064-.096-.056-.112-.064-.112-.064-.256-.168-.112-.064-.096-.056-.192-.12-.144-.08-.096-.056-.16-.096-.096-.056-.096-.056-.104-.064-.096-.056-.112-.064-.296-.184-.088-.048-.2-.12h-.04l-.096-.056-.096-.056h-.048l-.104-.056-.128-.12-.104-.064-.112-.064-.088-.048h-.04l-.104-.056h-.048l-.08-.048h-.056l-.08-.048h-.048l-.232-.184h-.04l-.072-.04h-.048l-.104-.056h-.048l-.08-.048h-.064l-.072-.04h-.048l-.104-.056h-.048l-.08-.04h-.064l-.08-.04h-.056l-.096-.056h-.176l-.08-.424h-.112l-.088-.048h-.112l-.096-.048h-.12l-.088-.048h-.064l-.016-.176zM304.44 4.568l-3.008 15.712a239.038 239.038 0 0 1 36.112 9.904l5.432-15.048A254.812 254.812 0 0 0 321.6 8.472l-.76-.2-.296-.08-.448-.12-.312-.072-.296-.08h-.4l-.36-.192H315.336l-.096-.848H312.12l-.08-.744H309.64l-.08-.536H308.168l-.128-.32h-.52l-.28-.16h-.512l-.288-.16H305.008l-.552-.392h-.016zM256.04 0v16c2.728 0 5.448.048 8.152.136l.536-16C262.936.088 261.152.04 259.36 0h-3.32zM256.04 55.904h-9.656l-2.24.12h-1.6a200 200 0 0 0-26.248 3.496l1.6 7.84a193.693 193.693 0 0 1 38.144-3.456v-8zm-77.896 15.728a199.645 199.645 0 0 0-33.68 18.248l-.064.04h-.656l-.12.08 4.52 6.6a192.116 192.116 0 0 1 33.6-18.4l-3.12-7.368-.48.8zm-65.6 44.888a200.814 200.814 0 0 0-24.856 31.256l6.728 4.336a193.53 193.53 0 0 1 23.872-30.008l-5.736-5.6-.008.016zm-43 66.824a198.507 198.507 0 0 0-6.24 18.696V204.152l-.056.224v.072A200.608 200.608 0 0 0 59.56 221.4l7.888 1.36A190.59 190.59 0 0 1 77 186.248l-7.456-2.904zm-5.504 78.088-8 .224c.168 5.992.592 11.928 1.28 17.792V282.616l.048.384a196.39 196.39 0 0 0 3.336 18.264l7.792-1.8a193.105 193.105 0 0 1-4.456-38.032zm17.208 74.312-7.272 3.328c.536 1.144 1.064 2.28 1.6 3.408v.656a199.85 199.85 0 0 0 14.584 25.12l.04.064.04.056.04.056v.328l.296.424V369.816l.04.064c.68.976 1.376 1.944 2.08 2.912l6.472-4.704a192.109 192.109 0 0 1-19.344-33.096l1.424.752zm44.864 61.72-5.416 5.888.232.208.224.208a200.818 200.818 0 0 0 31.48 23.544l4.144-6.848a192.792 192.792 0 0 1-30.672-23.016l.008.016zm65.288 39.472-2.696 7.536a196.7 196.7 0 0 0 14.96 4.688h.072l.52.144.296.08h.072l.224.056h.064l.52.136h.84l.8.208H212.208c1.528.336 3.072.656 4.616.952H221.648c1.6.264 3.152.512 4.744.736l1.136-7.92a191.553 191.553 0 0 1-37.208-9.208l1.08 2.592zm113.4 4.92a192.457 192.457 0 0 1-37.872 5.936l.448 8a162.65 162.65 0 0 0 3.448-.224h4.376a199.96 199.96 0 0 0 31.632-5.6l-2.024-7.736-.008-.376zm68.456-33.648a192.267 192.267 0 0 1-32.544 20.272l3.528 7.2a200.994 200.994 0 0 0 5.992-3.072H350.824l.688-.376H352.304a197.16 197.16 0 0 0 12.24-7.392l.064-.04h.056l.064-.04H365.424l.064-.04.064-.04.384-.256H366.24a200.819 200.819 0 0 0 9.832-7.12l-4.888-6.336 2.072-2.76zm50.032-57.6a192.765 192.765 0 0 1-22.136 31.304l6.04 5.248a199.508 199.508 0 0 0 12.352-15.744V370.728l.04-.064.04-.064v-.68l.04-.064v-.056l.048-.064a200.74 200.74 0 0 0 9.08-14.528l-6.96-3.944 1.456-.656zm23.616-72.52a191.535 191.535 0 0 1-8.144 37.448l7.608 2.48a198.435 198.435 0 0 0 5.056-18.544v-1.776a199.025 199.025 0 0 0 3.008-18.544l-7.952-.912.424-.152zm1.248-78.288-7.68 2.24a192.108 192.108 0 0 1 7 37.688l8-.672a199.688 199.688 0 0 0-7.296-39.264l-.024.008zm-37.056-70.296-6.192 5.064a193.04 193.04 0 0 1 21.184 31.96l7.08-3.736a200.212 200.212 0 0 0-22.072-33.288zM349.64 79.096l-3.744 7.072a192.66 192.66 0 0 1 31.912 21.248l5.072-6.184a200.502 200.502 0 0 0-33.24-22.136zM273.4 56.648l-.688 8a192.098 192.098 0 0 1 37.672 7.08L312.64 64a207.459 207.459 0 0 0-12.6-3.248h-.304l-.296-.064H292.008a202.517 202.517 0 0 0-18.576-2.472l-.032-1.568z"/></g></svg>