<svg xmlns="http://www.w3.org/2000/svg" focusable="false" fill="none" viewBox="0 0 165 110"><ellipse cx="86.5" cy="47" fill="#C9FBE8" rx="41.5" ry="41"/><path fill="#3F3D56" d="M119.156 53.843A32.996 32.996 0 0 1 66.128 80 33 33 0 0 1 77.43 21.953a32.99 32.99 0 0 1 39.847 20.851v.002c.305.86.573 1.736.805 2.628a33.26 33.26 0 0 1 1.074 8.408Z"/><path fill="#10A37F" d="M82.304 31.428a11.144 11.144 0 0 0-9.784-.4c-1.368.595-2.808 1.663-3.265 3.592 1.846-1.09 4.235.632 4.71 3.393l-.11.03c-.252 1.914.308 3.996 1.393 5.182a3.644 3.644 0 0 1 1.748-2.594c.797-.524 1.678-.904 2.286-1.804.721-1.068.904-2.627 1.19-4.05.287-1.423.83-2.953 1.832-3.35Z"/><path fill="#10A37F" d="M71.972 47.704c-.51.768-1.193 1.25-1.806 1.85a4.16 4.16 0 0 0-1.314 2.456c-.078.668.042 1.347.026 2.023-.017.675-.242 1.436-.701 1.604-.726.262-1.28-1.086-2.025-1.18-.592-.074-1.126.858-.954 1.667.172.808.978 1.166 1.441.639.42.703.124 1.978-.505 2.194-.067.443-.133.884-.198 1.327-1.59-1.113-3.198-2.244-4.55-3.874a11.76 11.76 0 0 1-2.68-6.334c-.175-1.874.085-4.017-.775-5.458-.688-1.154-1.87-1.408-2.933-1.336-.193.013-.389.035-.583.059a32.862 32.862 0 0 1 2.379-5.445c.216-.093.417-.218.596-.371.99-.84 1.428-2.54 2.231-3.715.052-.076.105-.15.16-.222.822-1.072 1.922-1.624 2.985-2.137 2.353-1.143 4.774-2.3 7.258-2.141l-.707.068a15984.804 15984.804 0 0 1-2.857 7.997c-.468 1.315-.952 2.714-.88 4.184.042.872.345 1.802.92 2.1.538.278 1.125-.062 1.643-.398.22-.14.438-.28.657-.422.788-.508 1.661-1.029 2.493-.689.762.31 1.325 1.346 1.432 2.462a4.923 4.923 0 0 1-.752 3.092ZM76.66 63.48l-6.905-4.251.039-.101c-1.431.545-2.025 3.089-1.789 5.17.237 2.08 1.039 3.94 1.444 5.966a15.84 15.84 0 0 1-.597 8.311 68.064 68.064 0 0 0 7.994-11.017c.32-.496.564-1.036.723-1.604a2.552 2.552 0 0 0-.169-1.814 2.021 2.021 0 0 0-.74-.66Z"/><path fill="#10A37F" d="M67.576 37.697a2.545 2.545 0 0 0-.116 1.85c.227.492.639.874 1.146 1.062l1.272.63c.422.21.879.422 1.31.25.52-.208.88-1.024.787-1.781-.099-.806-.607-1.36-1.076-1.832l-1.972-1.981-.37.453c-.401.391-.733.847-.98 1.349ZM112.339 46.31l1.716.404c-.099 1.933-1.057 3.721-2.342 4.37-.535.269-1.131.368-1.574.872-.4.458-.603 1.17-.79 1.851l-.979 3.566c-.351 1.281-.801 2.704-1.713 3.166-.782.396-1.677-.089-2.279-.903-.602-.814-.969-1.908-1.325-2.975.022 1.163-.519 2.303-1.284 2.708-.768.404-1.702.038-2.215-.864-.369-.648-.522-1.503-.884-2.16-.362-.657-1.12-1.033-1.515-.417-.26.41-.227 1.038-.356 1.558a1.692 1.692 0 0 1-1.414 1.36 2.356 2.356 0 0 1-1.692-.773 7.668 7.668 0 0 1-2.102-4.24c-.16-.767-.14-1.56.06-2.318.226-.718.774-1.272 1.319-1.135.358-.757-.35-1.76-.986-1.672-.638.089-1.138.773-1.662 1.3-.523.525-1.254.907-1.78.385a.721.721 0 0 1-.732.766c-.35-.1-.675-.273-.954-.506-1.205-.751-2.735-.253-3.591 1.169.535-2.278 1.32-4.892 2.963-5.427.672-.22 1.405-.039 2.04-.419 1.123-.673 1.35-3.219.38-4.269.123.993.1 2.152-.425 2.831-.524.68-1.624.237-1.557-.767a.674.674 0 0 1-1.251.265c-.35-.531-.32-1.4-.072-2.035a4.794 4.794 0 0 1 1.075-1.529c.877-.939 1.766-1.89 2.781-2.48 1.017-.59 2.191-.79 3.21-.203.537.31 1.01.827 1.557 1.1a1.154 1.154 0 0 0 1.608-.403c.407-.716.216-1.779.367-2.674.271-1.582 1.853-2.322 2.73-1.277-.656-.168-1.333.607-1.415 1.547-.082.939.392 1.888 1.027 2.172 1.066.472 2.111-.716 2.917-1.816.842-1.152 1.684-2.303 2.528-3.454.135-.195.286-.38.452-.55a1.457 1.457 0 0 1 1.988-.04c.853.696 1.253 2.122 1.952 3.104 1.015 1.427 2.534 1.774 3.948 2.05 1.053.206 2.108.412 3.163.62a32.744 32.744 0 0 1 1.836 4.054 11.108 11.108 0 0 0-4.728 4.088ZM118.082 45.435a6.685 6.685 0 0 0-.351 1.977c-.904-1.103-1.048-3.172-.454-4.605.305.86.573 1.736.805 2.628ZM115.746 68.518a33.178 33.178 0 0 1-2.75 4.601c-.664-.284-1.379.223-2 .7-.65.498-1.431.983-2.097.53-.681-.466-.9-1.767-.684-2.799a7.45 7.45 0 0 1 1.277-2.628c.553-.827 1.146-1.685 1.915-2.006.771-.322 1.762.133 1.988 1.229l.546-.019c-.307-.42-.146-1.292.266-1.445.474-.179.885.473 1.166 1.049.125.26.253.522.373.788Z"/><path fill="#10A37F" d="M94.825 60.722c-1.174.073-2.104-1.372-2.722-2.794-.618-1.422-1.182-3.049-2.241-3.773-.606-.413-1.296-.47-1.953-.67a2.417 2.417 0 0 1-1.657-1.46l-.745-.301a11.182 11.182 0 0 0-2.828 2.017 6.321 6.321 0 0 0-1.685 3.684c-.142 1.49.383 3.153 1.365 3.713.776.443 1.679.164 2.465.57.981.505 1.564 1.976 1.785 3.428.22 1.452.164 2.96.322 4.429.158 1.468.593 2.996 1.493 3.749 1.127.941 2.78.159 3.285-1.555.248-.841.24-1.79.425-2.663.327-1.537 1.208-2.677 1.907-3.938.699-1.26 1.249-2.973.784-4.436ZM83.223 45.618c.11.1.212.21.306.325a1.067 1.067 0 0 1-.019 1.101 1.025 1.025 0 0 0 .734-.373c.214-.244.403-.51.562-.792a.862.862 0 0 0 .166-.692c-.055-.158-.186-.225-.278-.345a2.343 2.343 0 0 1-.258-.747 1.348 1.348 0 0 0-.977-1.03l.06.012a.56.56 0 0 0-.262.594c.035.23.183.422.169.657-.022.337-.359.496-.38.834-.003.17.06.333.177.456ZM81.564 41.464a1.024 1.024 0 0 0 .319-1.016c-.086-.384-.388-.642-.666-.571a.679.679 0 0 1-.63.186c-.173-.045-.362-.159-.511-.03a.774.774 0 0 0-.174.34l-.166.51a.322.322 0 0 0-.02.192.165.165 0 0 0 .126.1l.994.293a.858.858 0 0 0 .728-.005ZM106.595 63.353l-.46-.753c-.15-.29-.356-.549-.606-.76a.534.534 0 0 0-.756.066l-.008.01.019.143c.41.44.69.986.807 1.576.035.257.023.522.054.78a.918.918 0 0 0 .284.636c.241.16.524-.077.696-.367a1.26 1.26 0 0 0 .196-.804 1.414 1.414 0 0 0-.226-.527ZM108.999 63.68c.03-.235.011-.474-.056-.701a1.542 1.542 0 0 1 .234-.872c.163-.246.286-.516.365-.8a.67.67 0 0 0-.018-.391c-.05-.114-.173-.166-.244-.076l.151.097a1.372 1.372 0 0 0-.612.03.758.758 0 0 0-.464.523 3.157 3.157 0 0 1-.122.543c-.089.185-.264.246-.373.408a.982.982 0 0 0 .015.93c.138.23.356.402.613.481.185.067.427.07.511-.172ZM113.281 64.972c.067.173.156.337.265.487.205.206.484.08.733.03a1.266 1.266 0 0 1 1.204.482 3.06 3.06 0 0 0-1.763-2.2 5.18 5.18 0 0 0-1.813-.283l-.106.027c.269.781 1.111.763 1.48 1.457ZM94.497 67.827a5.79 5.79 0 0 0-.365.8 6.974 6.974 0 0 0-.264 1.37c-.033.265-.043.602.122.73a.235.235 0 0 0 .307-.041c.092-.097.167-.209.223-.33a7.62 7.62 0 0 0 .75-1.784 3.103 3.103 0 0 0-.122-1.999l-.651 1.254ZM88.23 34.325a.74.74 0 0 0 .797.156c.277-.121.53-.289.75-.496.182-.134.337-.303.455-.496a1.004 1.004 0 0 0 .093-.766.778.778 0 0 0-.593-.47l-1.105-.327.267-.24c-.274-.147-.577.126-.748.464-.11.22-.187.456-.228.7a1.795 1.795 0 0 0 .312 1.475ZM94.728 32.143a.608.608 0 0 0 .829.068.926.926 0 0 0 .366-.66c.026-.29-.117-.612-.322-.637l.047-.27c-.394-.072-.878-.086-1.09.392a1.124 1.124 0 0 0 .17 1.107Z"/><path fill="#fff" d="M157.032 55.48c2.174-.948-2.234-1.5-7.234-1.681-5.001-.182-11.05-.172-14.246-.688-3.09-.499-2.863-1.386-3.123-2.19-.26-.804-1.448-1.628-6.27-1.807-6.01-.222-15.92.635-20.457.12-4.233-.48-1.717-1.986-7.89-2.044-3.525-.033-8.066.464-11.989.583-2.78.121-5.565-.024-8.318-.433-1.912-.314-3.243-.71-5.395-.988-5.649-.726-16.701-.482-26.565.45-9.865.93-18.32 2.456-23.089 3.968-4.769 1.51-6.086 2.999-4.975 4.26.71.806 2.524 1.56 6.927 1.883 8.236.606 22.898-.436 31.408.115 4.743.307 6.847 1.068 11.009 1.485 4.47.447 11.016.47 17.446.46 13.388-.022 27.12-.16 41.121-.412 5.849-.105 11.976-.242 18.199-.744 6.224-.502 12.571-1.471 13.884-2.38" opacity=".35"/><path fill="#10A37F" d="M136.942 92.445c-2.416 0-5.065-.09-7.946-.273-14.9-.947-34.2-4.237-54.344-9.264-20.145-5.028-38.728-11.193-52.326-17.359-6.623-3.003-11.707-5.847-15.11-8.45-3.602-2.757-5.177-5.16-4.683-7.142.964-3.861 9.495-4.706 16.482-4.735l.002.562c-9.595.04-15.256 1.57-15.94 4.31-.87 3.488 6.23 8.935 19.481 14.944 13.568 6.152 32.117 12.305 52.23 17.325 20.112 5.02 39.377 8.304 54.244 9.248 14.519.922 23.346-.55 24.217-4.039.722-2.897-4.043-7.164-13.417-12.017l.258-.498c6.812 3.525 14.718 8.582 13.703 12.651-.494 1.982-3.014 3.363-7.489 4.104-2.55.422-5.683.633-9.362.633Z"/><path fill="#10A37F" d="M44.74 93.177c-6.662 0-12.856-.229-18.4-.69-7.249-.603-12.992-1.573-17.071-2.882-4.32-1.386-6.61-3.12-6.81-5.153-.39-3.96 7.361-7.623 13.932-9.998l.191.528c-9.024 3.262-13.841 6.605-13.565 9.415.353 3.579 8.87 6.323 23.369 7.53 14.845 1.236 34.383.798 55.013-1.233 20.63-2.031 39.877-5.411 54.198-9.518 13.985-4.01 21.804-8.363 21.452-11.942-.293-2.971-6.214-5.39-16.674-6.81l.075-.556c7.601 1.032 16.747 3.138 17.157 7.311.201 2.033-1.709 4.18-5.675 6.382-3.745 2.08-9.189 4.15-16.181 6.155-14.351 4.116-33.635 7.503-54.297 9.537-12.962 1.275-25.499 1.924-36.714 1.924ZM117.688 104.741a3.739 3.739 0 1 0-.002-7.478 3.739 3.739 0 0 0 .002 7.478Z"/><path fill="#E6E6E6" d="M44.072 82.666a3.739 3.739 0 1 0 0-7.477 3.739 3.739 0 0 0 0 7.478Z"/><path fill="#FF6584" d="M112.711 25.355a2.288 2.288 0 1 0 0-4.576 2.288 2.288 0 0 0 0 4.576Z"/><path fill="#E6E6E6" d="M98.865 42.633a3.739 3.739 0 1 0-.001-7.477 3.739 3.739 0 0 0 0 7.477Z"/></svg>